<?xml version="1.0" encoding="utf-8"?>
<!-- Generator: Adobe Illustrator 27.5.0, SVG Export Plug-In . SVG Version: 6.00 Build 0)  -->
<svg version="1.1" xmlns="http://www.w3.org/2000/svg" xmlns:xlink="http://www.w3.org/1999/xlink" x="0px" y="0px"
	 viewBox="0 0 500 500" style="enable-background:new 0 0 500 500;" xml:space="preserve">
<g id="BACKGROUND">
	<rect style="fill:transparent;" width="500" height="500"/>
</g>
<g id="OBJECTS">
	<circle style="fill:#FFF0CF;" cx="250.855" cy="228.132" r="180.798"/>
	<g>
		<path style="fill:#57D3D3;" d="M448.022,205.273c-1.011,6.075,2.828,11.37,2.771,17.347c-0.055,5.18-3.641,9.197-8.004,11.558
			c-5.4,2.92-11.708,3.062-17.517,4.684c-5.322,1.493-10.115,4.346-11.99,9.802c-0.949,2.758-1.23,5.685-1.786,8.538
			c-0.505,2.63-1.292,5.204-2.449,7.624c-2.222,4.623-5.679,8.668-10.216,11.138c-4.446,2.415-9.896,3.04-14.749,1.616
			c-4.665-1.373-8.436-4.756-10.128-9.341c-1.188-3.224-1.323-6.795-0.205-9.992c1.436-10.075,13.203-14.198,20.272-20.108
			c2.083-1.753,3.983-3.82,5.155-6.3c1.344-2.85,1.623-6.023,1.473-9.135c-0.252-5.448-1.586-10.835-0.797-16.308
			c0.699-4.765,3.033-9.122,7.633-11.077c2.633-1.122,5.519-1.424,8.258-2.237c2.672-0.793,5.005-2.217,7.057-4.096
			c7.783-7.134,11.612-20.499,23.63-21.768c4.903-0.518,9.604,1.734,11.479,6.448c2.024,5.055,0.548,10.529-1.868,15.152
			C453.231,194.183,449.048,199.139,448.022,205.273z"/>
		<path style="fill:#544FC9;" d="M452.767,174.045c-7.84,1.818-14.526,7.65-17.239,15.265c-0.225,0.632-0.406,1.271-0.568,1.912
			c-0.478-1.396-0.955-2.793-1.433-4.189c-0.198-0.579-0.945-0.832-1.482-0.608c-0.596,0.249-0.806,0.901-0.608,1.482l2.761,8.072
			c-0.169,1.967-0.213,3.952-0.276,5.932c-0.137,4.257-0.382,8.877-3.077,12.394c-1.714,2.237-4.129,3.662-6.667,4.806
			c-0.192-0.261-0.207-0.728-0.239-1.02c-0.062-0.561-0.108-1.124-0.162-1.686l-0.36-3.758c-0.23-2.401-0.46-4.802-0.69-7.204
			c-0.139-1.452-2.385-1.163-2.246,0.287c0.26,2.714,0.52,5.429,0.78,8.143c0.13,1.357,0.258,2.715,0.39,4.072
			c0.067,0.688,0.156,1.421,0.442,2.052c-0.371,0.149-0.743,0.296-1.111,0.441c-3.711,1.454-7.585,2.85-10.654,5.483
			c-2.31,1.982-3.997,4.368-5.294,6.976c-0.148-0.61-0.27-1.23-0.415-1.829c-0.281-1.162-0.562-2.324-0.843-3.487l-1.725-7.132
			c-0.145-0.599-0.611-1.056-1.267-0.979c-0.557,0.065-1.123,0.673-0.979,1.267l1.917,7.924c0.332,1.374,0.665,2.747,0.997,4.121
			c0.254,1.049,0.443,2.168,1.027,3.094c-1.674,4.47-2.508,9.363-3.404,13.941c-0.949,4.851-2.115,9.914-4.885,14.078
			c-1.299-4.258-2.598-8.516-3.897-12.774c-0.424-1.391-2.512-0.511-2.09,0.874c1.434,4.7,2.868,9.401,4.302,14.101
			c-3.061,3.42-7.42,5.825-12.115,5.092c-1.443-0.225-1.759,2.018-0.32,2.242c5.682,0.887,10.558-1.839,14.1-5.914
			c0.02-0.005,0.043-0.003,0.062-0.009c4.226-1.221,8.452-2.443,12.678-3.664c0.592-0.171,0.818-0.962,0.608-1.482
			c-0.251-0.62-0.897-0.777-1.482-0.608l-9.666,2.794c1.105-1.738,2.007-3.593,2.661-5.449c2.477-7.02,2.757-14.854,5.307-21.853
			c1.398,0.381,3.1,0.013,4.488-0.146c2.729-0.312,5.458-0.624,8.186-0.936c1.448-0.166,1.162-2.412-0.287-2.246
			c-2.354,0.269-4.708,0.538-7.063,0.807c-1.152,0.132-2.303,0.284-3.457,0.394c-0.376,0.036-0.715,0.05-1.012-0.003
			c0.499-1.108,1.067-2.19,1.73-3.237c2.334-3.687,5.626-6.023,9.586-7.721c2.136-0.916,4.34-1.696,6.478-2.613
			c0.56,0.082,1.146,0.054,1.716,0.024c1.388-0.074,2.775-0.15,4.163-0.226l8.326-0.451c1.456-0.079,1.162-2.325-0.287-2.246
			c-2.455,0.133-4.91,0.266-7.365,0.399c-0.657,0.036-1.315,0.071-1.972,0.107c3.25-2.145,5.448-5.266,6.433-9.042
			c1.121-4.294,0.801-8.791,1.101-13.179c0.004-0.065,0.014-0.129,0.019-0.194c2.814-1.44,5.627-2.88,8.44-4.32
			c0.544-0.279,0.856-0.886,0.608-1.482c-0.222-0.532-0.935-0.888-1.482-0.608c-2.41,1.234-4.82,2.467-7.23,3.701
			c0.638-3.735,2.033-7.189,4.5-10.233c2.998-3.699,7.18-6.427,11.831-7.505C454.461,175.965,454.188,173.716,452.767,174.045z"/>
		<path style="fill:#544FC9;" d="M403.058,209.553c-0.824,2.694-0.674,5.4,0.002,8.102c1.202,4.825,3.818,9.432,3.658,14.524
			c-0.142,4.285-2.714,7.583-6.03,10.047c-3.218,2.392-6.971,4.118-9.876,6.929c-1.656,1.609-2.791,3.544-3.276,5.809
			c-0.569,2.718-0.456,5.544-1.128,8.24c-1.146,4.614-4.83,8.27-9.474,9.337c-3.804,0.873-7.851-0.296-10.781-2.789
			c-3.331-1.706-6.166-4.347-8.026-7.628c-2.544-4.492-3.256-9.997-1.879-14.976c1.421-5.159,5.487-9.635,5.521-15.154
			c0.031-4.951-2.918-9.375-4.68-13.822c-1.677-4.221-2.236-8.657,0.212-12.695c2.266-3.743,6.058-6.175,8.692-9.619
			c1.426-1.862,2.299-3.957,2.4-6.325c0.127-2.751-0.695-5.498-1.385-8.131c-1.298-4.914-2.192-9.887,0.547-14.497
			c2.351-3.942,6.655-6.724,11.306-6.766c4.549-0.038,9.094,2.331,11.618,6.129c1.488,2.246,1.964,4.82,2.719,7.366
			c0.697,2.37,1.808,4.309,3.777,5.849c3.368,2.637,7.862,3.957,10.454,7.523c3.337,4.595,1.435,10.451-0.891,15.019
			C405.279,204.481,403.867,206.902,403.058,209.553z"/>
		<path style="fill:#7979E2;" d="M392.871,182.488l-8.514,4.194c0.553-0.938,1.059-1.89,1.467-2.872
			c1.401-3.373,1.621-7.079,0.097-10.453c-1.505-3.331-4.378-5.993-7.899-7.035c-0.125-0.037-0.24-0.033-0.356-0.033
			c-0.107-0.026-0.212-0.058-0.336-0.053c-0.855,0.034-1.092,0.819-0.86,1.452c0.052,0.306,0.242,0.577,0.643,0.705
			c0.008,0.003,0.014,0.009,0.022,0.012c0.001,0,0.001,0.001,0.002,0.001c3.309,0.979,5.916,3.476,7.063,6.737
			c1.147,3.258,0.272,6.557-1.279,9.513c-0.51,0.972-1.078,1.917-1.666,2.852c-1.191-2.21-2.382-4.421-3.573-6.631
			c-0.684-1.27-2.783-0.412-2.09,0.874l4.271,7.927c-2.408,3.724-4.71,7.458-4.593,12.163c0.074,2.992,1.01,5.742,2.167,8.432
			c-0.609-0.482-1.219-0.965-1.828-1.447c-1.991-1.576-3.982-3.151-5.973-4.727c-1.145-0.906-2.529,0.886-1.385,1.792
			c2.26,1.789,4.52,3.577,6.78,5.366c1.088,0.861,2.149,1.826,3.308,2.589c0.286,0.188,0.589,0.318,0.898,0.395
			c1.207,2.634,2.331,5.294,2.766,8.153c0.734,4.832-0.805,9.322-2.952,13.596c-2.908-4.133-5.816-8.266-8.725-12.399
			c-0.839-1.192-2.633,0.19-1.794,1.382c3.111,4.421,6.222,8.843,9.334,13.264c-1.306,2.375-2.712,4.69-3.92,6.964
			c-1.074,2.02-2.043,4.228-2.76,6.51c-1.281-2.315-2.562-4.629-3.844-6.944c-0.697-1.26-2.797-0.403-2.09,0.874
			c1.709,3.087,3.417,6.174,5.126,9.26c-0.882,4.668-0.41,9.431,2.776,13.394c0.912,1.134,2.711-0.242,1.794-1.382
			c-2.671-3.323-3.129-7.218-2.471-11.096c3.7-2.384,7.4-4.769,11.1-7.153c1.224-0.789-0.162-2.581-1.382-1.794
			c-2.979,1.92-5.958,3.84-8.938,5.76c0.844-2.705,2.089-5.323,3.366-7.639c1.095-1.987,2.281-4.006,3.394-6.069
			c4.665-3.829,9.329-7.658,13.993-11.486c1.124-0.923-0.251-2.723-1.382-1.795c-3.416,2.804-6.832,5.608-10.248,8.412
			c1.548-3.712,2.476-7.595,1.899-11.733c-0.421-3.016-1.639-5.827-2.927-8.614c0.822-0.702,1.37-1.792,1.953-2.672
			c0.8-1.21,1.6-2.419,2.4-3.629c1.638-2.477,3.277-4.953,4.915-7.43c0.8-1.21-0.986-2.603-1.792-1.385
			c-2.743,4.147-5.477,8.3-8.23,12.441c-0.057,0.085-0.156,0.27-0.27,0.458c-1.459-3.19-2.76-6.412-2.812-9.937
			c-0.062-4.234,2.174-7.729,4.477-11.186c3.917-1.93,7.835-3.86,11.752-5.79C395.045,183.937,394.183,181.841,392.871,182.488z"/>
		<path style="fill:#7979E2;" d="M442.331,280.24c-2.721,0.731-4.935,2.294-6.866,4.3c-3.452,3.578-5.97,8.241-10.37,10.806
			c-3.708,2.153-7.868,1.723-11.716,0.219c-3.734-1.459-7.189-3.724-11.113-4.695c-2.242-0.55-4.485-0.485-6.662,0.305
			c-2.606,0.959-4.941,2.555-7.583,3.416c-4.519,1.477-9.573,0.293-12.941-3.077c-2.758-2.762-3.914-6.812-3.356-10.619
			c-0.321-3.729,0.413-7.532,2.208-10.85c2.457-4.54,6.747-8.064,11.698-9.538c5.127-1.533,11.079-0.46,15.774-3.36
			c4.213-2.6,6.399-7.447,9.233-11.3c2.688-3.661,6.151-6.488,10.874-6.555c4.375-0.066,8.448,1.859,12.765,2.264
			c2.335,0.22,4.574-0.15,6.635-1.322c2.399-1.352,4.292-3.506,6.158-5.488c3.477-3.708,7.218-7.104,12.579-7.228
			c4.588-0.099,9.23,2.074,11.734,5.994c2.446,3.836,2.849,8.945,0.969,13.1c-1.114,2.453-3.044,4.222-4.802,6.212
			c-1.64,1.848-2.693,3.819-2.954,6.304c-0.448,4.254,0.817,8.764-0.83,12.852c-2.125,5.266-8.098,6.762-13.204,7.214
			C447.809,279.432,445.007,279.52,442.331,280.24z"/>
		<path style="fill:#57D3D3;" d="M459.868,257.246l-8.073-4.992c1.089-0.029,2.164-0.105,3.213-0.28
			c3.602-0.602,6.86-2.381,8.912-5.464c2.025-3.042,2.758-6.891,1.773-10.428c-0.035-0.126-0.099-0.221-0.161-0.319
			c-0.035-0.105-0.063-0.21-0.133-0.314c-0.483-0.707-1.274-0.491-1.688,0.041c-0.232,0.207-0.36,0.511-0.257,0.919
			c0.001,0.008,0,0.016,0.002,0.025c0,0.001,0,0.002,0,0.002c0.925,3.324,0.192,6.859-1.963,9.561
			c-2.153,2.701-5.414,3.709-8.742,3.963c-1.094,0.083-2.197,0.103-3.301,0.101c1.242-2.182,2.484-4.364,3.725-6.547
			c0.713-1.254-1.127-2.577-1.85-1.307l-4.453,7.826c-4.434-0.065-8.821-0.035-12.747,2.559c-2.497,1.65-4.331,3.902-5.998,6.31
			c0.086-0.772,0.171-1.545,0.256-2.317c0.279-2.524,0.559-5.047,0.838-7.571c0.161-1.451-2.093-1.674-2.254-0.224
			c-0.317,2.865-0.634,5.729-0.951,8.594c-0.153,1.379-0.408,2.79-0.44,4.178c-0.008,0.342,0.043,0.668,0.141,0.971
			c-1.592,2.421-3.25,4.785-5.444,6.67c-3.706,3.186-8.329,4.263-13.091,4.711c1.96-4.658,3.921-9.316,5.881-13.974
			c0.566-1.344-1.558-2.132-2.123-0.788c-2.097,4.983-4.194,9.966-6.292,14.949c-2.706,0.153-5.414,0.19-7.983,0.371
			c-2.282,0.161-4.668,0.511-6.983,1.114c1.282-2.314,2.565-4.628,3.847-6.942c0.698-1.26-1.142-2.584-1.85-1.307
			c-1.71,3.086-3.42,6.172-5.13,9.258c-4.424,1.729-8.212,4.656-9.881,9.46c-0.477,1.374,1.643,2.17,2.123,0.788
			c1.399-4.027,4.458-6.482,8.094-7.982c3.984,1.871,7.969,3.743,11.953,5.614c1.318,0.619,2.102-1.506,0.788-2.123
			c-3.208-1.507-6.416-3.013-9.624-4.52c2.741-0.72,5.62-1.053,8.261-1.199c2.266-0.126,4.606-0.192,6.945-0.343
			c5.72,1.923,11.441,3.845,17.161,5.767c1.378,0.463,2.175-1.657,0.788-2.123c-4.189-1.408-8.379-2.816-12.568-4.224
			c3.967-0.657,7.752-1.931,10.953-4.616c2.334-1.957,4.069-4.481,5.749-7.051c1.031,0.324,2.246,0.211,3.301,0.238
			c1.45,0.036,2.899,0.073,4.349,0.11c2.969,0.075,5.937,0.15,8.906,0.224c1.45,0.036,1.684-2.217,0.224-2.254
			c-4.97-0.125-9.941-0.239-14.912-0.376c-0.102-0.003-0.311,0.011-0.531,0.014c1.93-2.929,3.971-5.742,6.931-7.656
			c3.557-2.299,7.705-2.258,11.857-2.14c3.714,2.297,7.428,4.593,11.143,6.89C459.793,259.857,461.112,258.015,459.868,257.246z"/>
	</g>
	<g>
		<path style="fill:#57D3D3;" d="M59.328,345.459c3.345,5.171,1.93,11.557,4.36,17.017c2.112,4.731,6.999,6.989,11.942,7.419
			c6.116,0.53,11.96-1.849,17.934-2.672c5.476-0.748,11.009-0.038,14.9,4.222c1.968,2.153,3.391,4.726,5.035,7.122
			c1.51,2.212,3.256,4.261,5.28,6.02c3.878,3.357,8.659,5.693,13.804,6.154c5.04,0.447,10.288-1.148,14.174-4.386
			c3.734-3.116,5.848-7.72,5.576-12.599c-0.192-3.43-1.49-6.76-3.788-9.249c-5.326-8.672-17.763-7.773-26.599-10.382
			c-2.608-0.78-5.174-1.92-7.236-3.729c-2.367-2.081-3.886-4.88-4.987-7.795c-1.936-5.098-2.856-10.572-5.758-15.278
			c-2.537-4.094-6.412-7.162-11.41-7.125c-2.862,0.018-5.63,0.889-8.467,1.233c-2.767,0.335-5.474-0.043-8.104-0.95
			c-9.978-3.448-18.81-14.186-30.34-10.569c-4.705,1.475-8.121,5.412-7.966,10.482c0.154,5.443,3.686,9.878,7.743,13.157
			C50.137,337.357,55.946,340.239,59.328,345.459z"/>
		<path style="fill:#544FC9;" d="M42.549,318.697c7.916-1.452,16.37,1.238,21.89,7.146c0.458,0.49,0.878,1.004,1.282,1.528
			c-0.117-1.471-0.235-2.942-0.352-4.413c-0.049-0.61,0.536-1.139,1.118-1.147c0.646-0.009,1.098,0.506,1.147,1.118l0.678,8.504
			c0.937,1.737,1.768,3.541,2.614,5.332c1.819,3.851,3.882,7.992,7.754,10.146c2.463,1.37,5.245,1.716,8.029,1.757
			c0.072-0.316-0.1-0.75-0.186-1.031c-0.167-0.539-0.348-1.074-0.522-1.611l-1.165-3.591c-0.744-2.294-1.489-4.589-2.233-6.883
			c-0.45-1.387,1.726-2.016,2.175-0.63c0.841,2.594,1.683,5.187,2.525,7.781c0.421,1.297,0.844,2.593,1.262,3.891
			c0.212,0.658,0.423,1.365,0.41,2.058c0.4-0.011,0.799-0.024,1.195-0.038c3.983-0.143,8.093-0.403,11.956,0.792
			c2.908,0.899,5.405,2.417,7.633,4.294c-0.107-0.619-0.241-1.236-0.347-1.843c-0.204-1.178-0.409-2.356-0.613-3.534l-1.255-7.229
			c-0.105-0.607,0.14-1.212,0.773-1.403c0.537-0.161,1.298,0.17,1.403,0.773l1.394,8.033c0.242,1.392,0.483,2.785,0.725,4.177
			c0.185,1.064,0.456,2.165,0.288,3.247c3.314,3.435,6.026,7.592,8.67,11.436c2.801,4.073,5.885,8.254,10.083,10.972
			c-0.502-4.423-1.005-8.847-1.507-13.27c-0.164-1.445,2.101-1.468,2.265-0.029c0.555,4.883,1.109,9.766,1.664,14.649
			c4.169,1.92,9.125,2.391,13.141-0.148c1.234-0.781,2.417,1.151,1.186,1.93c-4.86,3.074-10.418,2.513-15.289,0.184
			c-0.02,0.003-0.04,0.014-0.06,0.017c-4.363,0.561-8.726,1.122-13.089,1.682c-0.611,0.079-1.133-0.557-1.147-1.118
			c-0.016-0.669,0.514-1.07,1.118-1.147l9.979-1.283c-1.705-1.155-3.27-2.498-4.61-3.94c-5.066-5.455-8.439-12.531-13.564-17.938
			c-1.131,0.906-2.839,1.245-4.176,1.652c-2.628,0.8-5.255,1.599-7.883,2.399c-1.395,0.424-2.025-1.751-0.63-2.175
			c2.267-0.69,4.534-1.38,6.801-2.069c1.109-0.337,2.226-0.656,3.328-1.014c0.359-0.117,0.676-0.238,0.927-0.405
			c-0.898-0.818-1.85-1.584-2.875-2.281c-3.609-2.454-7.558-3.287-11.867-3.27c-2.324,0.009-4.656,0.171-6.983,0.18
			c-0.481,0.298-1.03,0.506-1.565,0.705c-1.302,0.485-2.606,0.966-3.909,1.449l-7.818,2.898c-1.367,0.507-1.991-1.671-0.63-2.175
			c2.305-0.855,4.61-1.709,6.916-2.564c0.617-0.229,1.234-0.458,1.852-0.686c-3.835-0.674-7.094-2.664-9.5-5.736
			c-2.737-3.494-4.233-7.746-6.253-11.653c-0.03-0.058-0.064-0.113-0.095-0.171c-3.154-0.202-6.308-0.404-9.463-0.606
			c-0.61-0.039-1.138-0.473-1.147-1.118c-0.008-0.576,0.505-1.186,1.118-1.147c2.702,0.173,5.404,0.346,8.105,0.519
			c-2.071-3.173-4.725-5.786-8.2-7.597c-4.223-2.201-9.144-3.039-13.84-2.178C41.76,321.132,41.115,318.96,42.549,318.697z"/>
		<path style="fill:#544FC9;" d="M102.283,331.495c1.828,2.144,2.767,4.686,3.222,7.434c0.817,4.905,0.25,10.173,2.423,14.78
			c1.835,3.875,5.507,5.878,9.53,6.818c3.904,0.914,8.034,1.004,11.817,2.428c2.159,0.817,3.97,2.141,5.317,4.026
			c1.604,2.267,2.624,4.905,4.313,7.111c2.887,3.777,7.722,5.665,12.407,4.797c3.837-0.713,7.085-3.395,8.782-6.849
			c2.377-2.89,3.927-6.441,4.328-10.192c0.547-5.133-0.99-10.467-4.235-14.487c-3.356-4.168-8.868-6.656-11.094-11.706
			c-1.998-4.53-1.053-9.762-1.205-14.543c-0.141-4.54-1.393-8.832-5.246-11.563c-3.568-2.533-8.015-3.255-11.801-5.367
			c-2.049-1.141-3.684-2.715-4.718-4.848c-1.211-2.473-1.55-5.32-1.965-8.011c-0.764-5.025-1.923-9.943-6.27-13.082
			c-3.725-2.681-8.781-3.521-13.065-1.709c-4.189,1.775-7.415,5.757-8.221,10.245c-0.472,2.652,0.116,5.203,0.437,7.84
			c0.304,2.452,0.056,4.673-1.138,6.869c-2.041,3.759-5.639,6.758-6.598,11.061c-1.233,5.544,2.842,10.16,6.793,13.425
			C98.227,327.725,100.485,329.385,102.283,331.495z"/>
		<path style="fill:#7979E2;" d="M100.86,302.611l9.48,0.461c-0.88-0.641-1.724-1.313-2.489-2.051
			c-2.627-2.537-4.304-5.849-4.248-9.552c0.055-3.654,1.632-7.24,4.447-9.597c0.1-0.084,0.207-0.126,0.314-0.171
			c0.088-0.067,0.171-0.138,0.287-0.183c0.798-0.309,1.328,0.317,1.367,0.99c0.074,0.302,0.007,0.626-0.309,0.903
			c-0.006,0.006-0.009,0.013-0.015,0.019c-0.001,0.001-0.001,0.001-0.001,0.002c-2.646,2.215-4.044,5.543-3.8,8.991
			c0.244,3.446,2.36,6.124,4.958,8.218c0.854,0.689,1.752,1.33,2.663,1.954c0.213-2.502,0.426-5.003,0.639-7.505
			c0.123-1.437,2.389-1.485,2.265-0.029l-0.764,8.971c3.691,2.459,7.288,4.969,9.053,9.331c1.122,2.774,1.358,5.67,1.367,8.598
			c0.367-0.685,0.734-1.37,1.102-2.055c1.2-2.238,2.399-4.475,3.599-6.713c0.69-1.287,2.673-0.193,1.984,1.093
			c-1.362,2.54-2.724,5.08-4.085,7.62c-0.656,1.223-1.245,2.531-2.005,3.692c-0.187,0.286-0.414,0.526-0.666,0.72
			c-0.06,2.897-0.033,5.784,0.707,8.58c1.249,4.725,4.448,8.232,8.118,11.299c1.024-4.949,2.047-9.898,3.071-14.846
			c0.295-1.428,2.491-0.874,2.196,0.554c-1.095,5.294-2.19,10.589-3.286,15.883c2.143,1.66,4.354,3.224,6.367,4.829
			c1.789,1.426,3.557,3.066,5.122,4.874c0.254-2.633,0.509-5.267,0.763-7.9c0.139-1.433,2.405-1.482,2.265-0.029
			c-0.339,3.512-0.679,7.024-1.018,10.535c2.666,3.931,4.129,8.489,2.782,13.393c-0.385,1.403-2.583,0.857-2.196-0.554
			c1.129-4.111-0.001-7.867-2.148-11.163c-4.343-0.715-8.687-1.431-13.03-2.146c-1.437-0.237-0.878-2.432,0.554-2.196
			c3.497,0.576,6.994,1.152,10.491,1.728c-1.85-2.146-4.035-4.052-6.127-5.669c-1.796-1.387-3.687-2.768-5.528-4.218
			c-5.803-1.657-11.606-3.314-17.408-4.97c-1.398-0.399-0.853-2.598,0.554-2.196c4.25,1.213,8.5,2.427,12.749,3.64
			c-2.896-2.789-5.293-5.983-6.41-10.009c-0.814-2.935-0.815-5.998-0.742-9.067c-1.033-0.317-1.97-1.098-2.855-1.675
			c-1.215-0.791-2.431-1.583-3.646-2.374c-2.488-1.62-4.977-3.241-7.465-4.861c-1.216-0.792-0.131-2.78,1.093-1.984
			c4.167,2.713,8.327,5.436,12.5,8.139c0.086,0.056,0.25,0.186,0.43,0.313c0.069-3.508-0.019-6.981-1.374-10.235
			c-1.628-3.909-5.07-6.226-8.558-8.481c-4.362-0.212-8.723-0.424-13.085-0.636C99.442,304.806,99.399,302.54,100.86,302.611z"/>
		<path style="fill:#7979E2;" d="M94.377,411.972c2.787-0.412,5.44,0.141,8.011,1.213c4.591,1.909,8.756,5.185,13.814,5.787
			c4.259,0.5,7.904-1.549,10.835-4.461c2.846-2.824,5.114-6.277,8.328-8.729c1.838-1.397,3.921-2.229,6.234-2.371
			c2.772-0.157,5.55,0.378,8.316,0.117c4.733-0.443,8.899-3.54,10.648-7.972c1.431-3.631,0.881-7.807-1.146-11.077
			c-1.189-3.549-3.376-6.746-6.343-9.076c-4.061-3.187-9.398-4.714-14.527-4.097c-5.313,0.634-10.347,3.986-15.809,3.194
			c-4.9-0.71-8.834-4.286-12.967-6.694c-3.923-2.29-8.225-3.505-12.584-1.688c-4.04,1.681-7.011,5.067-10.81,7.156
			c-2.054,1.131-4.256,1.682-6.613,1.427c-2.739-0.285-5.332-1.509-7.833-2.585c-4.665-2.018-9.448-3.646-14.416-1.626
			c-4.249,1.735-7.643,5.575-8.38,10.167c-0.718,4.493,0.946,9.34,4.323,12.404c1.998,1.807,4.472,2.663,6.877,3.789
			c2.24,1.043,3.99,2.432,5.219,4.608c2.103,3.725,2.737,8.365,5.875,11.461c4.045,3.986,10.119,2.981,14.984,1.365
			C89.03,413.409,91.635,412.376,94.377,411.972z"/>
		<path style="fill:#57D3D3;" d="M69.138,397.853l5.42-7.791c-1.01,0.406-2.027,0.765-3.059,1.021
			c-3.544,0.881-7.241,0.545-10.35-1.467c-3.068-1.986-5.272-5.224-5.776-8.862c-0.018-0.129,0.003-0.242,0.021-0.357
			c-0.01-0.11-0.026-0.218-0.003-0.341c0.162-0.84,0.973-0.957,1.565-0.633c0.295,0.098,0.534,0.326,0.601,0.741
			c0.002,0.008,0.006,0.015,0.008,0.023c0,0.001,0.001,0.001,0.001,0.002c0.474,3.418,2.553,6.369,5.605,7.991
			c3.05,1.621,6.443,1.249,9.597,0.157c1.037-0.359,2.056-0.779,3.069-1.221c-2.007-1.508-4.015-3.016-6.023-4.524
			c-1.153-0.866,0.009-2.813,1.177-1.935l7.199,5.408c4.042-1.824,8.078-3.542,12.713-2.723c2.947,0.521,5.526,1.857,8.013,3.403
			c-0.386-0.675-0.772-1.349-1.157-2.024c-1.26-2.204-2.521-4.408-3.781-6.612c-0.725-1.267,1.254-2.368,1.978-1.102
			c1.431,2.502,2.861,5.004,4.292,7.506c0.689,1.205,1.485,2.398,2.066,3.658c0.143,0.311,0.226,0.63,0.257,0.947
			c2.424,1.587,4.886,3.096,7.648,3.953c4.668,1.448,9.337,0.597,13.885-0.887c-3.652-3.493-7.303-6.987-10.955-10.48
			c-1.053-1.008,0.581-2.576,1.635-1.568c3.907,3.737,7.813,7.474,11.72,11.212c2.544-0.936,5.042-1.98,7.471-2.835
			c2.157-0.76,4.486-1.388,6.85-1.756c-2.097-1.613-4.194-3.226-6.291-4.838c-1.141-0.878,0.02-2.825,1.177-1.935
			c2.797,2.151,5.593,4.302,8.39,6.452c4.747-0.174,9.387,1.004,12.829,4.747c0.985,1.071-0.644,2.644-1.635,1.568
			c-2.886-3.138-6.669-4.173-10.602-4.102c-2.911,3.302-5.822,6.604-8.732,9.906c-0.963,1.093-2.528-0.546-1.568-1.635
			c2.344-2.659,4.687-5.317,7.031-7.976c-2.801,0.43-5.575,1.27-8.056,2.186c-2.129,0.786-4.302,1.657-6.508,2.448
			c-4.483,4.04-8.966,8.079-13.449,12.119c-1.08,0.973-2.655-0.655-1.568-1.635c3.283-2.959,6.567-5.917,9.85-8.876
			c-3.901,0.975-7.88,1.313-11.885,0.123c-2.919-0.867-5.516-2.492-8.079-4.182c-0.817,0.707-1.976,1.087-2.934,1.531
			c-1.316,0.61-2.631,1.221-3.947,1.831c-2.694,1.25-5.387,2.499-8.081,3.749c-1.316,0.61-2.427-1.364-1.102-1.979
			c4.51-2.093,9.026-4.175,13.531-6.278c0.093-0.043,0.29-0.113,0.493-0.198c-2.937-1.919-5.927-3.688-9.405-4.266
			c-4.178-0.694-7.967,0.994-11.729,2.755c-2.494,3.585-4.987,7.17-7.481,10.754C70.247,400.22,68.303,399.054,69.138,397.853z"/>
	</g>
	<g>
		<g>
			<g>
				<path style="fill:#FFD05A;" d="M356.363,142.653c-1.066,0-1.878,1.14-1.791,2.135c0.1,1.139,1.066,1.791,2.135,1.791
					c1.066,0,1.878-1.14,1.791-2.135C358.398,143.305,357.432,142.653,356.363,142.653z"/>
			</g>
			<g>
				<path style="fill:#FFD05A;" d="M319.246,161.988c-1.066,0-1.878,1.14-1.791,2.135c0.1,1.139,1.066,1.791,2.135,1.791
					c1.066,0,1.878-1.14,1.791-2.135C321.281,162.64,320.315,161.988,319.246,161.988z"/>
			</g>
			<g>
				<path style="fill:#FFD05A;" d="M428.432,338.77c-1.066,0-1.878,1.14-1.791,2.135c0.1,1.139,1.066,1.791,2.135,1.791
					c1.066,0,1.878-1.14,1.791-2.135C430.467,339.422,429.501,338.77,428.432,338.77z"/>
			</g>
			<g>
				<path style="fill:#FFD05A;" d="M450.216,351.038c-1.066,0-1.878,1.14-1.791,2.135c0.1,1.139,1.066,1.791,2.135,1.791
					c1.066,0,1.878-1.14,1.791-2.135C452.251,351.69,451.284,351.038,450.216,351.038z"/>
			</g>
			<g>
				<path style="fill:#FFD05A;" d="M466.43,370.319c-1.066,0-1.878,1.14-1.791,2.135c0.1,1.139,1.066,1.791,2.135,1.791
					c1.066,0,1.878-1.14,1.791-2.135C468.465,370.972,467.499,370.319,466.43,370.319z"/>
			</g>
			<g>
				<path style="fill:#FFD05A;" d="M448.025,390.477c-1.066,0-1.878,1.14-1.791,2.135c0.1,1.139,1.066,1.791,2.135,1.791
					c1.066,0,1.878-1.14,1.791-2.135C450.06,391.13,449.093,390.477,448.025,390.477z"/>
			</g>
			<g>
				<path style="fill:#FFD05A;" d="M240.059,152.424c-1.066,0-1.878,1.14-1.791,2.135c0.1,1.139,1.066,1.791,2.135,1.791
					c1.066,0,1.878-1.14,1.791-2.135C242.094,153.077,241.128,152.424,240.059,152.424z"/>
			</g>
			<g>
				<path style="fill:#FFD05A;" d="M203.806,178.945c-1.066,0-1.878,1.14-1.791,2.135c0.1,1.139,1.066,1.791,2.135,1.791
					c1.066,0,1.878-1.14,1.791-2.135C205.841,179.598,204.874,178.945,203.806,178.945z"/>
			</g>
			<g>
				<path style="fill:#FFD05A;" d="M335.804,150.344c-0.003,0-0.006,0-0.009,0c-0.376-0.003-0.729-0.185-0.949-0.49l-5.368-7.428
					c-0.299-0.413-0.299-0.971,0-1.384l5.368-7.435c0.227-0.315,0.57-0.523,0.984-0.49c0.388,0.008,0.748,0.207,0.962,0.531
					l5.204,7.888c0.274,0.416,0.259,0.959-0.039,1.358l-5.204,6.976C336.529,150.168,336.177,150.344,335.804,150.344z
					 M331.895,141.733l3.925,5.431l3.745-5.02l-3.804-5.766L331.895,141.733z"/>
			</g>
			<g>
				<path style="fill:#FFD05A;" d="M204.052,162.96c-0.003,0-0.006,0-0.009,0c-0.376-0.003-0.729-0.185-0.949-0.49l-5.368-7.428
					c-0.299-0.413-0.299-0.971,0-1.384l5.368-7.435c0.227-0.315,0.592-0.52,0.983-0.49c0.389,0.008,0.748,0.207,0.962,0.531
					l5.204,7.888c0.274,0.416,0.259,0.959-0.039,1.358l-5.204,6.976C204.776,162.784,204.425,162.96,204.052,162.96z
					 M200.143,154.349l3.925,5.431l3.745-5.02l-3.804-5.766L200.143,154.349z"/>
			</g>
			<g>
				<path style="fill:#FFD05A;" d="M425.935,399.287c-0.003,0-0.006,0-0.009,0c-0.376-0.003-0.729-0.185-0.949-0.49l-5.368-7.428
					c-0.299-0.413-0.299-0.971,0-1.385l5.368-7.436c0.227-0.315,0.567-0.504,0.984-0.49c0.388,0.008,0.748,0.207,0.962,0.531
					l5.204,7.888c0.274,0.416,0.259,0.959-0.039,1.358l-5.204,6.976C426.659,399.11,426.308,399.287,425.935,399.287z
					 M422.026,390.676l3.924,5.431l3.745-5.02l-3.804-5.766L422.026,390.676z"/>
			</g>
			<g>
				<path style="fill:#FFD05A;" d="M227.077,181.59c-0.003,0-0.006,0-0.009,0c-0.376-0.003-0.728-0.185-0.949-0.49l-5.369-7.428
					c-0.299-0.413-0.299-0.971,0-1.384l5.369-7.435c0.227-0.315,0.615-0.508,0.983-0.49c0.389,0.008,0.748,0.207,0.962,0.531
					l5.203,7.888c0.274,0.416,0.259,0.959-0.039,1.358l-5.203,6.976C227.801,181.414,227.45,181.59,227.077,181.59z
					 M223.167,172.979l3.926,5.431l3.744-5.02l-3.803-5.766L223.167,172.979z"/>
			</g>
			<path style="fill:#FFD05A;" d="M229.221,141.159c-3.257,0-2.796,5.042,0.441,5.042
				C232.918,146.201,232.458,141.159,229.221,141.159z"/>
			<path style="fill:#FFD05A;" d="M436.004,369.761c-3.257,0-2.796,5.042,0.441,5.042
				C439.701,374.803,439.241,369.761,436.004,369.761z"/>
			<path style="fill:#FFD05A;" d="M450.88,337.387c-3.257,0-2.796,5.042,0.441,5.042
				C454.578,342.429,454.117,337.387,450.88,337.387z"/>
			<path style="fill:#FFD05A;" d="M317.844,127.914c-0.157-0.417-0.406-0.769-0.746-1.056c-0.182-0.117-0.363-0.233-0.545-0.35
				c-0.413-0.194-0.847-0.271-1.303-0.233h-0.528c-0.348,0.017-0.666,0.118-0.952,0.302c-0.304,0.129-0.559,0.326-0.766,0.592
				c-0.226,0.25-0.376,0.536-0.45,0.857c-0.132,0.314-0.176,0.644-0.132,0.99c0.05,0.221,0.099,0.442,0.149,0.662
				c0.157,0.417,0.406,0.769,0.746,1.056l0.545,0.35c0.413,0.194,0.847,0.271,1.303,0.233h0.528
				c0.348-0.017,0.666-0.118,0.952-0.302c0.304-0.129,0.559-0.326,0.766-0.592c0.226-0.25,0.376-0.535,0.45-0.857
				c0.132-0.314,0.176-0.644,0.132-0.99C317.943,128.356,317.893,128.135,317.844,127.914z"/>
			<g>
				<path style="fill:#FFD05A;" d="M140.243,416.632c-1.066,0-1.878,1.14-1.791,2.135c0.1,1.139,1.066,1.791,2.135,1.791
					c1.066,0,1.878-1.14,1.791-2.135C142.278,417.285,141.311,416.632,140.243,416.632z"/>
			</g>
			<g>
				<path style="fill:#FFD05A;" d="M144.884,445.166c-1.066,0-1.878,1.14-1.791,2.135c0.1,1.139,1.066,1.791,2.135,1.791
					c1.066,0,1.878-1.14,1.791-2.135C146.919,445.818,145.953,445.166,144.884,445.166z"/>
			</g>
			<g>
				<path style="fill:#FFD05A;" d="M154.299,440.091c-0.003,0-0.006,0-0.009,0c-0.376-0.003-0.729-0.185-0.949-0.49l-5.368-7.428
					c-0.299-0.413-0.299-0.971,0-1.384l5.368-7.436c0.228-0.316,0.587-0.521,0.983-0.49c0.389,0.008,0.748,0.207,0.962,0.531
					l5.204,7.888c0.274,0.416,0.259,0.959-0.039,1.358l-5.204,6.976C155.023,439.915,154.672,440.091,154.299,440.091z
					 M150.389,431.48l3.925,5.431l3.745-5.02l-3.804-5.766L150.389,431.48z"/>
			</g>
			<path style="fill:#FFD05A;" d="M132.242,433.123c-0.157-0.417-0.406-0.768-0.746-1.056c-0.182-0.116-0.363-0.233-0.545-0.35
				c-0.413-0.194-0.847-0.271-1.303-0.233h-0.528c-0.348,0.017-0.666,0.118-0.952,0.302c-0.304,0.129-0.559,0.326-0.766,0.592
				c-0.226,0.25-0.376,0.536-0.45,0.857c-0.132,0.314-0.176,0.644-0.132,0.99c0.05,0.221,0.099,0.442,0.149,0.662
				c0.157,0.417,0.406,0.769,0.746,1.056c0.182,0.117,0.363,0.233,0.545,0.35c0.413,0.194,0.847,0.271,1.303,0.233h0.528
				c0.348-0.017,0.666-0.118,0.952-0.302c0.304-0.129,0.559-0.326,0.766-0.592c0.226-0.25,0.376-0.536,0.45-0.857
				c0.132-0.314,0.176-0.644,0.132-0.99C132.341,433.565,132.291,433.344,132.242,433.123z"/>
		</g>
	</g>
	<g>
		<g>
			<path style="fill:#D37A0F;" d="M301.11,97.597c-0.463,4.467-1.431,8.901-2.788,13.185c-0.678,2.153-1.431,4.284-2.325,6.35
				c-0.667,1.55-1.528,3.024-3.175,3.659c-1.948,0.743-4.327,0.7-6.383,0.947c-0.506,0.054-1.022,0.118-1.528,0.183
				c-0.172,0.086-0.377,0.129-0.624,0.065c-0.85,0.108-1.701,0.204-2.551,0.312c-0.904,0.323-1.819,0.71-2.777,0.527
				c-1.84-0.334-2.658-2.099-3.121-3.713c-1.496-5.091-2.583-10.322-3.423-15.553c-0.667-4.122-1.593-8.6-1.066-12.776
				c0.474-3.81,2.852-6.501,6.243-8.094c6.641-3.121,16.855-3.778,21.429,3.111C301.336,89.277,301.53,93.572,301.11,97.597z"/>
			<g>
				<polygon style="fill:#EEBD2C;" points="363.284,31.158 363.284,110.824 273.593,110.824 273.593,44.953 308.534,44.953
					311.807,31.158 				"/>
				<polygon style="fill:#FFD05A;" points="363.287,110.82 273.589,110.82 283.209,44.953 372.907,44.953 				"/>
			</g>
			<path style="fill:#F7991E;" d="M289.185,95.208c-2.153,0.818-4.37,1.442-6.63,1.916c4.37,3.885,6.942,9.579,6.759,15.499
				c-0.054,1.765-0.323,3.498-0.829,5.188c-0.409,1.345-0.904,2.734-2.153,3.52c-1.324,0.829-3.175,0.732-4.671,0.85
				c-2.045,0.151-4.079,0.301-6.124,0.452c-0.431,0.032-0.99-0.237-1.098-0.689c-0.054-0.215-0.108-0.42-0.161-0.624
				c0-0.011-0.011-0.011-0.011-0.022c-0.032-0.129-0.054-0.258-0.086-0.387l-0.883-3.509c-0.021-0.097-0.011-0.172-0.011-0.248
				c-1.518-6.404-3.035-12.797-4.564-19.201c-0.667-2.852-2.131-6.393-1.27-9.332c0.721-2.432,2.981-3.875,5.123-4.94
				c5.263-2.626,11.366-3.541,17.167-2.691c2.669,0.388,5.726,1.023,7.534,3.207c1.754,2.12,1.421,4.951-0.452,6.888
				C294.868,93.109,291.768,94.239,289.185,95.208z"/>
		</g>
		<g>
			<g>
				<path style="fill:#211E5E;" d="M135.882,349.902c0.12,0.23,11.59,13.699,11.73,13.93v20.097
					c-15.24-9.89-45.76-47.166-48.97-65.046c-2.99-16.66,0.77-34.61,10.08-48.76c-3.58,10.93-2.89,23.23,2.89,34.12L135.882,349.902
					z"/>
				<path style="fill:#433C85;" d="M200.24,243.48l9.92,19.18l19.79,37.24c11.3,21.24,3.15,47.86-18.1,59.16l-16.82,8.93
					c-21.01,11.18-47.27,3.33-58.76-17.39c-0.14-0.23-0.27-0.47-0.39-0.7l-24.27-45.66c-5.78-10.89-6.47-23.19-2.89-34.12
					c1.15-3.51,2.73-6.87,4.73-10c-2.61-0.06-4.99-2.4-5.03-5.03c-0.05-2.59,2.2-4.98,4.77-5.18l-0.02-0.45
					c-10.87-3.92-21.03-9.67-29.98-17.01c-18.64-15.31-31.18-37.19-35.21-60.96c-4.24-24.98,1.92-50.15,12.26-72.89
					c-0.9-0.9-1.71-1.88-2.27-3.03c-0.99-2.02-1.01-4.7,0.56-6.31c2.72-2.79,7.33-0.64,10.76,1.19c14.95,7.96,32.86,7.01,49.77,6.02
					c16.91-0.98,34.93-1.53,49.53,7.06c12.15,7.15,20.32,20.06,23.41,33.82c3.08,13.76,1.45,28.27-2.79,41.72
					c-4.11,13.03-10.57,25.18-17.56,36.93c1.78-0.22,3.69,0.47,4.99,1.75c1.74,1.72,2.44,4.3,2.21,6.73
					c-0.06,0.65-0.18,1.29-0.37,1.91c2.59-0.17,5.26,0.61,7.22,2.31c2.01,1.76,3.16,4.52,2.75,7.15
					c21.95-7.8,47.73-17.21,61.58-35.96c17.35-23.48,25.46-53.59,22.25-82.61l3.85-0.42l10.35-1.15
					C291.41,221.17,200.24,243.48,200.24,243.48z"/>
				<path style="fill:#0DBAAD;" d="M152.72,137.3c-0.03,0.07-0.06,0.13-0.09,0.2c-0.14,0.29-0.27,0.58-0.38,0.88
					c-0.12,0.3-0.23,0.6-0.32,0.9c-0.14,0.44-0.25,0.88-0.35,1.32c-0.28,1.23-0.44,2.48-0.52,3.73c-0.1,1.68-0.07,3.38,0,5.06
					l-0.08,0.08c-1.82-1.78-3.63-3.56-5.45-5.35c-4.55-4.46-9.1-8.92-13.65-13.38c-7.73,0.08-15.26,1.66-22.61,4.06
					c-7.34,2.39-14.5,5.6-21.5,8.9c-10.94,5.16-22.16,10.48-33.91,12.89c-3.49,0.72-7.04,1.18-10.63,1.3
					c-2.41,0.08-4.91-0.01-7.12-0.97c-2.22-0.97-4.13-2.98-4.34-5.39c-0.19-2.26,1.14-4.45,2.91-5.88c1.41-1.12,3.07-1.86,4.76-2.51
					c0.24-0.09,0.47-0.17,0.71-0.26c-0.28-0.04-0.56-0.08-0.84-0.15c-0.08-0.02-0.17-0.04-0.25-0.06c-0.23-0.06-0.46-0.12-0.68-0.18
					c-0.02-0.01-0.04-0.02-0.06-0.02c-0.25-0.08-0.49-0.16-0.72-0.25c-0.01,0-0.03,0-0.04-0.01c-4.2-1.64-7.45-5.79-8.01-10.33
					c-0.71-5.7,2.46-11.54,7.31-14.61c4.86-3.08,11.11-3.54,16.61-1.86c-0.7-0.38-1.34-0.87-1.9-1.44h-0.01
					c-0.19-0.19-0.37-0.39-0.53-0.59c-0.5-0.58-0.92-1.22-1.24-1.91c-0.01-0.03-0.03-0.06-0.04-0.09c-0.11-0.24-0.22-0.49-0.31-0.74
					c-0.08-0.23-0.16-0.46-0.23-0.7c-0.05-0.21-0.1-0.42-0.14-0.63c-0.03-0.13-0.05-0.26-0.06-0.39c-0.03-0.2-0.06-0.4-0.07-0.6
					c-0.2-2.92,1.18-5.9,3.53-7.64c2.25-1.66,5.15-2.13,7.97-1.88c0.61,0.05,1.22,0.14,1.82,0.26c0.39,0.08,0.78,0.17,1.16,0.27
					c0.9,0.23,1.79,0.51,2.66,0.82c0.63,0.22,1.25,0.46,1.87,0.7c0.12,0.05,0.25,0.11,0.38,0.15c0.39,0.16,0.79,0.32,1.18,0.48
					c0.1,0.04,0.19,0.08,0.29,0.12c0.7,0.28,1.39,0.56,2.09,0.83c7.59,2.9,15.76,4.28,23.88,4.06c7.89-0.23,15.85-1.94,23.59-0.44
					c7.82,1.51,14.74,6.23,20.16,12.06C144.83,123.8,148.86,130.54,152.72,137.3z"/>
				<path style="fill:#F7991E;" d="M172.58,155.52c-0.79,1.76-1.85,3.41-3.11,4.87c-1.1,1.29-2.37,2.43-3.76,3.4
					c-0.19,0.13-0.38,0.26-0.58,0.38l-0.02,0.02c-0.17,11.11-0.37,25.18-2.08,36.16c-2.88,6.67-7.35,12.73-12.87,17.95
					c-4.99,4.72-10.83,8.74-17.14,11.9c-5.9,2.95-12.2,5.15-18.58,6.41c-3.4,0.7-6.83,1.12-10.23,1.26
					c-3.62,0.14-7.21-0.03-10.7-0.55c-2.45-0.36-4.85-0.9-7.19-1.61c-13.96-4.27-25.35-48.07-31.54-72.76
					c-0.06-0.24-0.12-0.48-0.18-0.71c-0.49-1.95-0.73-3.83-0.74-5.65c11.75-2.41,22.97-7.73,33.91-12.89c7-3.3,14.16-6.51,21.5-8.9
					c7.35-2.4,14.88-3.98,22.61-4.06c4.55,4.46,9.1,8.92,13.65,13.38c1.82,1.79,3.63,3.57,5.45,5.35l0.08-0.08
					c-0.07-1.68-0.1-3.38,0-5.06c0.08-1.25,0.24-2.5,0.52-3.73c0.1-0.44,0.21-0.88,0.35-1.32c0.21-0.67,0.47-1.34,0.79-1.98
					c1.18-2.44,3.08-4.55,5.58-5.54c3.13-1.24,6.83-0.53,9.59,1.4c2.75,1.93,4.61,4.96,5.59,8.18
					C174.89,145.97,174.57,151.1,172.58,155.52z"/>
				<path style="fill:#D37A0F;" d="M109.271,134.802c7.35-2.4,14.88-3.98,22.61-4.06c-24.06,16.5-49.03,26.33-77.1,32.21
					c-0.06-0.24-0.12-0.48-0.18-0.71c-0.49-1.95-0.73-3.83-0.74-5.65c11.75-2.41,22.97-7.73,33.91-12.89
					C94.771,140.402,101.932,137.192,109.271,134.802z"/>
				<path style="fill:#211E5E;" d="M298.121,114.432c3.92,35.44-5.98,72.22-27.17,100.91c-15.45,20.92-36.78,37.37-60.79,47.32
					l-9.92-19.18c0,0,91.17-22.31,86.24-127.77l9.07-1L298.121,114.432z"/>
				<path style="fill:#D37A0F;" d="M162.182,155.362c-0.7-0.63-1.3-1.35-1.76-2.16c-0.87-1.56-1.15-3.51-0.49-5.17
					c0.66-1.67,2.33-2.95,4.12-2.91c0.98,0.03,1.91,0.42,2.88,0.55c0.97,0.14,2.11-0.08,2.61-0.92c0.29-0.5,0.3-1.11,0.21-1.68
					c-0.34-2.29-2.14-4.29-4.38-4.88c-2.24-0.58-4.79,0.3-6.2,2.13c-1.15,1.49-1.53,3.44-1.59,5.32c-0.08,2.38,0.32,4.83,1.56,6.85
					C159.882,153.692,160.941,154.712,162.182,155.362z M114.442,236.612c17.57-5.52,32.47-19.39,38.82-36.73
					c6.71-18.34,3.59-39.89-7.73-55.76c1.82,1.79,3.63,3.57,5.45,5.35l0.08-0.08c-0.07-1.68-0.1-3.38,0-5.06
					c0.08-1.25,0.24-2.5,0.52-3.73c0.1-0.44,0.21-0.88,0.35-1.32c0.21-0.67,0.47-1.34,0.79-1.98c1.18-2.44,3.08-4.55,5.58-5.54
					c3.13-1.24,6.83-0.53,9.59,1.4c2.75,1.93,4.61,4.96,5.59,8.18c1.41,4.63,1.09,9.76-0.9,14.18c-0.79,1.76-1.85,3.41-3.11,4.87
					c-1.1,1.29-2.37,2.43-3.76,3.4c-0.19,0.13-0.38,0.26-0.58,0.38l-0.02,0.02c-0.17,11.11-0.37,25.18-2.08,36.16
					c-2.88,6.67-7.35,12.73-12.87,17.95c-4.99,4.72-10.83,8.74-17.14,11.9C127.122,233.152,120.822,235.352,114.442,236.612z"/>
				<path style="fill:#B75F00;" d="M159.932,148.032c-0.66,1.66-0.38,3.61,0.49,5.17c0.46,0.81,1.06,1.53,1.76,2.16
					c-1.24-0.65-2.3-1.67-3.04-2.87c-1.24-2.02-1.64-4.47-1.56-6.85c0.06-1.88,0.44-3.83,1.59-5.32c1.41-1.83,3.96-2.71,6.2-2.13
					c2.24,0.59,4.04,2.59,4.38,4.88c0.09,0.57,0.08,1.18-0.21,1.68c-0.5,0.84-1.64,1.06-2.61,0.92c-0.97-0.13-1.9-0.52-2.88-0.55
					C162.262,145.082,160.592,146.362,159.932,148.032z"/>
				<path style="fill:#57D3D3;" d="M36.861,117.272c-4.85,3.07-8.02,8.91-7.31,14.61c0.224,1.801,0.878,3.538,1.84,5.085
					c-2.811-2.581-4.516-6.32-4.13-10.292c0.31-3.186,1.757-6.274,4.105-8.468c2.671-2.496,6.337-3.528,9.919-3.67
					c1.031-0.041,2.058,0.002,3.081,0.092C41.707,114.973,39.132,115.833,36.861,117.272z M89.348,134.747
					c-7.357,2.859-14.22,6.643-21.248,10.196c-3.493,1.766-7.048,3.431-10.747,4.722c-3.359,1.173-7.135,2.341-10.729,2.281
					c-1.403-0.023-3.433-0.317-4.076-1.784c-0.886-2.021,1.207-4.15,2.503-5.458c0.956-0.965,2.002-1.826,3.106-2.6
					c10.105-2.16,19.65-6.603,29.398-10c12.927-4.504,26.645-6.503,40.322-5.674c1.491,0.09,2.979,0.215,4.464,0.371
					C111.057,127.971,99.929,130.635,89.348,134.747z M139.522,118.112c-5.42-5.83-12.34-10.55-20.16-12.06
					c-7.74-1.5-15.7,0.21-23.59,0.44c-2.463,0.067-4.929-0.032-7.383-0.257c6.785-0.802,13.645-2.82,20.148-3.738
					c6.733-0.95,13.346-0.457,19.529,2.519c5.593,2.693,10.342,6.912,13.996,11.903c3.375,4.611,5.818,9.794,7.63,15.192
					C146.704,127.146,143.466,122.339,139.522,118.112z M153.05,136.37c-3.29-12.47-9.74-24.54-21.01-31.46
					c-5.44-3.34-11.61-5.02-18-4.89c-7.35,0.15-14.42,2.37-21.62,3.64c-7.24,1.27-15.06,1.63-21.68-2.09
					c-0.36-0.21-0.69-0.15-0.94,0.03c-0.1-0.04-0.19-0.08-0.29-0.12c-0.39-0.16-0.79-0.32-1.18-0.48c-0.13-0.04-0.26-0.1-0.38-0.15
					c-0.62-0.24-1.24-0.48-1.87-0.7c-0.87-0.31-1.76-0.59-2.66-0.82c-0.38-0.1-0.77-0.19-1.16-0.27c-0.6-0.12-1.21-0.21-1.82-0.26
					c-2.82-0.25-5.72,0.22-7.97,1.88c-2.35,1.74-3.73,4.72-3.53,7.64c0.01,0.2,0.04,0.4,0.07,0.6c0.01,0.13,0.03,0.26,0.06,0.39
					c0.04,0.21,0.09,0.42,0.14,0.63c0.07,0.24,0.15,0.47,0.23,0.7c0.09,0.25,0.2,0.5,0.31,0.74c0.01,0.03,0.03,0.06,0.04,0.09
					c0.33,0.69,0.75,1.33,1.24,1.91c0.17,0.21,0.35,0.4,0.54,0.59h-0.01c-7.23-1.79-15.36-2.74-21.28,2.54
					c-5.49,4.9-6.71,13.39-2.45,19.46c2.27,3.26,5.82,5.54,9.73,6.24c0.01,0.01,0.03,0.01,0.04,0.01c0.23,0.09,0.47,0.17,0.72,0.25
					c0.02,0,0.04,0.01,0.06,0.02c0.22,0.06,0.45,0.12,0.68,0.18c0.08,0.02,0.17,0.04,0.25,0.06c0.28,0.07,0.56,0.11,0.84,0.15
					c1.37-0.09,2.61,0.15,3.96-0.05c-2.25,2.09-4.77,5.1-3.37,8.16c1.25,2.76,4.82,3.15,7.47,2.88c3.99-0.4,7.94-1.56,11.67-3
					c7.85-3.02,15.04-7.49,22.65-11.04c7.89-3.68,16.16-6.52,24.64-8.49c7.98-1.86,16.14-2.89,24.32-3.15
					c1.27,0.25,2.54,0.51,3.79,0.81c4.69,4.27,12.53,11.55,15.78,15.33c0.08-1.25,0.24-2.5,0.52-3.73c0.1-0.44,0.21-0.88,0.35-1.32
					c0.09-0.3,0.2-0.6,0.32-0.9c0.11-0.3,0.24-0.59,0.38-0.88C152.96,137.26,153.18,136.86,153.05,136.37z"/>
				<path style="fill:#0E0E2B;" d="M135.752,248.562c-0.17,1.49-0.43,2.97-0.8,4.42c-10.87-3.6-21.25-8.69-30.74-15.11
					c3.4-0.14,6.83-0.56,10.23-1.26c6.38-1.26,12.68-3.46,18.58-6.41l0.22,0.45C135.602,236.272,136.462,242.502,135.752,248.562z"
					/>
				<path style="fill:#0E0E2B;" d="M165.712,163.792l-0.58,0.38C165.331,164.052,165.521,163.922,165.712,163.792z"/>
				<path style="fill:#0E0E2B;" d="M152.242,220.822c-0.64-0.88-1.34-1.72-2.08-2.52c5.52-5.22,9.99-11.28,12.87-17.95
					c-1.57,10.07-3.78,20.03-6.61,29.81C155.682,226.812,154.242,223.612,152.242,220.822z"/>
				<path style="fill:#B75F00;" d="M150.161,218.302c0.74,0.8,1.44,1.64,2.08,2.52c-1.4,10.97-7.54,21.25-16.49,27.74
					c0.71-6.06-0.15-12.29-2.51-17.91l-0.22-0.45C139.331,227.042,145.172,223.022,150.161,218.302z"/>
				<path style="fill:#211E5E;" d="M127.701,266.552c8.19,4.94,19.02,5.35,27.49,0.84c8.66-4.61,14.43-14.14,14.67-23.91
					c0.31,6.59,0.4,13.26-1.52,19.55c-2.13,7-7.29,13.54-14.42,15.23c-5.13,1.21-10.61-0.23-15.19-2.85
					C134.632,273.062,131.122,269.842,127.701,266.552z"/>
				<path style="fill:#F7991E;" d="M152.242,220.822c2,2.79,3.44,5.99,4.18,9.34c-2.58,8.9-5.67,17.66-9.27,26.2
					c-4.12-0.91-8.2-2.04-12.2-3.38c0.37-1.45,0.63-2.93,0.8-4.42C144.702,242.072,150.842,231.792,152.242,220.822z"/>
			</g>
			<g>
				<path style="fill:#141423;" d="M143.624,180.139c-4.138,4.243-9.768,6.849-15.589,8.009c-5.821,1.159-11.841,0.951-17.718,0.147
					c-3.969-0.536-7.991-1.348-11.952-0.689c-0.729,0.128-1.459,0.303-2.178,0.566c-0.014,0.004-0.014,0.004-0.014,0.004
					c-0.991,0.53-1.926,1.196-2.761,1.939c-1.341,1.203-2.519,2.588-3.724,3.934c-0.01,0.018-0.01,0.018-0.01,0.018
					c-0.782,0.866-1.583,1.722-2.452,2.506c-6.436,5.782-16.724,6.74-24.095,2.211c-2.431-1.492-4.545-3.509-6.071-5.919
					c-2.479-3.888-3.32-8.654-3.1-13.264c0.217-4.364,1.379-8.752,3.83-12.379c2.451-3.626,6.255-6.433,10.572-7.184
					c4.911-0.869,9.854,0.908,14.696,2.148c4.828,1.244,10.352,1.847,14.477-0.964c3.181-2.174,4.827-5.925,6.695-9.299
					c2.696-4.898,6.29-9.468,11.143-12.208c5.77-3.262,13.032-3.614,19.198-1.193c6.176,2.403,11.206,7.469,13.855,13.547
					C152.455,161.292,150.655,172.919,143.624,180.139z"/>
				<path style="fill:#FFC545;" d="M124.399,159.893c0,0,6.223,5.152-1.137,10.721c-7.346,5.565-11.809-0.978-11.809-0.978
					L124.399,159.893z"/>
				<path style="fill:#FFC545;" d="M64.691,180.06l16.185,0.93c0,0-0.091,7.934-9.304,7.369
					C62.374,187.791,64.691,180.06,64.691,180.06z"/>
			</g>
			<path style="fill:#141423;" d="M131.865,193.48c0.217-1.265-1.736-1.693-1.955-0.422c-1.556,9.053-7.65,17.073-16.044,20.865
				c-1.16,0.524-0.552,2.432,0.623,1.901C123.522,211.742,130.181,203.273,131.865,193.48z"/>
			<g>
				<path style="fill:#B75F00;" d="M101.594,187.638c2.72,2.65,5,5.75,6.69,9.16c-6.31,6.47-15.63,9.96-24.64,9.07
					c-1.3-0.13-2.63-0.36-3.79-0.98c-1.16-0.62-2.14-1.69-2.35-2.99c-0.14-0.83,0.05-1.67,0.45-2.42l0.41,0.19
					c8.95-0.03,17.77-4.56,23.01-11.81L101.594,187.638z"/>
				<path style="fill:#D37A0F;" d="M101.374,187.858c-5.24,7.25-14.06,11.78-23.01,11.81l-0.41-0.19c0.32-0.63,0.77-1.19,1.29-1.66
					c1.15-1.02,2.59-1.65,3.97-2.35c5.41-2.74,10.16-6.74,13.79-11.59c1.64,1.11,3.17,2.37,4.59,3.76L101.374,187.858z"/>
			</g>
			<path style="fill:#0DBAAD;" d="M95.347,227.57c-0.563-0.078-1.031,0.258-1.165,0.803c-0.484,1.979-0.968,3.959-1.453,5.938
				c-0.124,0.509,0.289,1.094,0.803,1.165c0.563,0.077,1.031-0.258,1.165-0.803c0.484-1.979,0.968-3.959,1.453-5.938
				C96.274,228.226,95.86,227.641,95.347,227.57z"/>
			<path style="fill:#0DBAAD;" d="M103.097,229.399c-0.028-0.523-0.56-0.979-1.083-0.909c-0.553,0.073-0.939,0.523-0.909,1.083
				c0.089,1.67,0.177,3.34,0.265,5.009c0.028,0.523,0.56,0.979,1.083,0.909c0.553-0.073,0.939-0.523,0.909-1.083
				C103.273,232.739,103.185,231.069,103.097,229.399z"/>
			<path style="fill:#0DBAAD;" d="M111.83,233.794c-0.552-1.607-1.105-3.215-1.657-4.822c-0.17-0.495-0.797-0.795-1.286-0.589
				c-0.509,0.215-0.771,0.756-0.589,1.286c0.552,1.607,1.105,3.215,1.657,4.822c0.17,0.495,0.797,0.795,1.286,0.589
				C111.75,234.865,112.012,234.324,111.83,233.794z"/>
			<path style="fill:#211E5E;" d="M169.613,163.61c-0.021-1.287-2.013-1.107-1.992,0.174c0.328,20.012-1.641,40.039-5.871,59.602
				c-1.201,5.557-2.588,11.072-4.145,16.54c-0.353,1.239,1.618,1.589,1.968,0.362c5.527-19.412,8.823-39.439,9.777-59.601
				C169.618,174.998,169.706,169.304,169.613,163.61z"/>
			<path style="fill:#211E5E;" d="M169.715,225.449c-2.075,4.46-4.15,8.92-6.224,13.379c-0.544,1.169,1.265,2.023,1.808,0.855
				c2.075-4.46,4.15-8.92,6.224-13.379C172.067,225.135,170.258,224.281,169.715,225.449z"/>
			<path style="fill:#211E5E;" d="M176.135,230.246c-0.442-0.34-1.035-0.293-1.409,0.123c-1.901,2.113-3.801,4.227-5.702,6.34
				c-0.351,0.39-0.295,1.087,0.123,1.409c0.442,0.34,1.035,0.293,1.409-0.123c1.901-2.113,3.801-4.227,5.702-6.34
				C176.609,231.265,176.554,230.568,176.135,230.246z"/>
			<path style="fill:#211E5E;" d="M128.207,262.534c-4.748-2.836-9.496-5.671-14.244-8.507c-1.107-0.661-1.951,1.154-0.855,1.808
				c4.748,2.836,9.496,5.671,14.244,8.507C128.458,265.004,129.303,263.189,128.207,262.534z"/>
			<path style="fill:#211E5E;" d="M129.056,258.895c-3.055-2.876-6.11-5.751-9.165-8.627c-0.939-0.884-2.221,0.652-1.286,1.532
				c3.055,2.876,6.11,5.751,9.165,8.627C128.71,261.311,129.991,259.775,129.056,258.895z"/>
		</g>
	</g>
	<g>
		<rect x="147.612" y="224.573" style="fill:#9090BF;" width="263.721" height="188.501"/>
		<rect x="154.216" y="224.642" style="fill:#D5D4E8;" width="257.116" height="188.431"/>
		<rect x="158.695" y="234.741" style="fill:#8ADBDD;" width="248.16" height="172.83"/>
		<circle style="fill:#9090BF;" cx="278.002" cy="229.845" r="3.484"/>
		<path style="fill:#D5D4E8;" d="M238.049,413.074c0,0-12.961,7.149-12.961,46.098h154.56v-11.277h-84.199
			c0,0-2.443-16.829,10.322-34.822H238.049z"/>
		<path style="fill:#9090BF;" d="M305.77,413.074l-79.243,25.772c0,0,2.341-19.066,11.522-25.772H305.77z"/>
		<rect x="225.291" y="447.896" style="fill:#9090BF;" width="154.357" height="3.16"/>
		<path style="fill:#ABEDED;" d="M406.855,292.092v115.48h-248.16v-113.96c14.09,4.13,27.27,11.9,39.25,20.15
			c19.52,13.43,38.25,29.3,61.34,36.26c11.24,3.39,22.9,4.12,34.44,1.92c11.67-2.23,22.75-7.07,33.06-12.88
			c20.71-11.68,38.69-27.63,59.79-38.68C392.965,297.032,399.805,294.162,406.855,292.092z"/>
		<path style="fill:#EEBD2C;" d="M319.197,400.514h-13.482c-3.937,0-7.158-3.221-7.158-7.158v-13.482
			c0-3.937,3.221-7.158,7.158-7.158h13.482c3.937,0,7.158,3.221,7.158,7.158v13.482
			C326.355,397.292,323.134,400.514,319.197,400.514z"/>
		<path style="fill:#7979E2;" d="M355.011,400.377h-13.482c-3.937,0-7.158-3.221-7.158-7.158v-13.482
			c0-3.937,3.221-7.158,7.158-7.158h13.482c3.937,0,7.158,3.221,7.158,7.158v13.482C362.17,397.156,358.949,400.377,355.011,400.377
			z"/>
		<path style="fill:#57D3D3;" d="M392.242,400.377H378.76c-3.937,0-7.158-3.221-7.158-7.158v-13.482
			c0-3.937,3.221-7.158,7.158-7.158h13.482c3.937,0,7.158,3.221,7.158,7.158v13.482
			C399.401,397.156,396.179,400.377,392.242,400.377z"/>
	</g>
	<path style="fill:#F7991E;" d="M164.186,372.178c1.15,0.06,2.27,0.29,3.23,0.9c1.37,0.87,2.22,2.47,2.31,4.09
		c0.09,1.63-0.54,3.26-1.62,4.48c-1.19,1.37-2.87,2.24-4.62,2.74c-1.74,0.5-3.56,0.67-5.37,0.83c-3.52,0.31-7.04,0.63-10.56,0.95
		c-2.4,0.21-5,0.38-7.03-0.91c-1.78-1.13-2.76-3.17-3.48-5.15c-3.11-8.49-3.28-18.03-0.48-26.62l-0.05-0.02
		c2.01-3.91,4.16-7.75,6.83-11.23c2.95-3.83,6.56-7.24,10.88-9.42c1.17-0.58,2.42-1.09,3.73-1.1c1.31-0.01,2.69,0.56,3.34,1.7
		c0.81,1.41,0.3,3.19-0.31,4.69c-1.72,4.2-4.15,8.1-7.18,11.48c2.62-0.22,5.25-0.35,7.88-0.38c1.93-0.02,3.91,0,5.72,0.67
		c1.81,0.66,3.45,2.07,3.89,3.94c0.32,1.36-0.03,2.83-0.83,3.97c-0.8,1.14-2.01,1.95-3.34,2.38l-0.02,0.22c0.06,0,0.11,0,0.17,0.01
		c1.2,0.16,2.4,0.62,3.22,1.51c1.09,1.18,1.34,2.98,0.87,4.5c-0.47,1.53-1.58,2.81-2.89,3.73
		C167.176,371.048,165.686,371.648,164.186,372.178z"/>
	<g>
		<g>
			<rect x="215.672" y="272.299" style="fill:#D5D4E8;" width="73.758" height="109.531"/>
			<rect x="222.374" y="266.487" style="fill:#C4C4E8;" width="73.758" height="109.531"/>
			<rect x="230.949" y="259.295" style="fill:#FFFFFF;" width="73.758" height="109.531"/>
			<path style="fill:#D5D4E8;" d="M293.816,277.792h-51.611c-3.463,0-2.973,5.361,0.469,5.361h51.611
				C297.748,283.153,297.259,277.792,293.816,277.792z"/>
			<path style="fill:#D5D4E8;" d="M293.816,292.097h-51.611c-3.463,0-2.973,5.361,0.469,5.361h51.611
				C297.748,297.458,297.259,292.097,293.816,292.097z"/>
			<path style="fill:#D5D4E8;" d="M293.816,306.387h-51.611c-3.463,0-2.973,5.361,0.469,5.361h51.611
				C297.748,311.748,297.259,306.387,293.816,306.387z"/>
			<path style="fill:#D5D4E8;" d="M293.816,320.692h-51.611c-3.463,0-2.973,5.361,0.469,5.361h51.611
				C297.748,326.053,297.259,320.692,293.816,320.692z"/>
			<path style="fill:#D5D4E8;" d="M294.234,333.003h-51.611c-3.463,0-2.973,5.361,0.469,5.361h51.611
				C298.166,338.364,297.676,333.003,294.234,333.003z"/>
			<path style="fill:#D5D4E8;" d="M296.198,347.308h-51.611c-3.463,0-2.973,5.361,0.469,5.361h51.611
				C300.129,352.669,299.64,347.308,296.198,347.308z"/>
		</g>
		<g>
			<rect x="262.483" y="287.252" style="fill:#FFD05A;" width="82.147" height="71.84"/>
			<rect x="262.483" y="287.252" style="fill:#EEBD2C;" width="15.429" height="71.84"/>
			<g>
				<g>
					<path style="fill:#C8C8E8;" d="M335.639,236.117L341.6,254.9l-0.009,0.005l-4.132,6.971l-7.441-3.247l-5.978-18.831
						c-3.765-11.861-16.47-18.449-28.34-14.679c-1.156,0.358-2.266,0.816-3.314,1.342c-9.717,4.891-14.763,16.288-11.362,26.984
						l6.956,21.916l-0.009,0.005l-2.925,5.463l-4.835-3.139l-2.517,5.469l-8.268-26.034c-5.427-17.104,3.134-35.357,19.25-42.35
						c1.077-0.474,2.199-0.893,3.341-1.254C310.276,207.728,329.845,217.862,335.639,236.117z"/>
				</g>
				<g>
					<path style="fill:#9090BF;" d="M288.679,214.776c-16.116,6.993-24.678,25.246-19.25,42.35l8.268,26.034l-4.751-2.853
						l-2.083,5.021l-8.259-26.039c-5.794-18.255,4.354-37.821,22.6-43.61C286.36,215.322,287.519,215.009,288.679,214.776z"/>
					<path style="fill:#9090BF;" d="M324.041,239.798l5.978,18.831l-2.539,5.251l-4.226-2.925l-6.037-18.993
						c-3.393-10.701-14.067-17.114-24.828-15.5c1.047-0.526,2.157-0.984,3.314-1.342
						C307.571,221.35,320.277,227.937,324.041,239.798z"/>
				</g>
			</g>
			<g>
				<path style="fill:#211E5E;" d="M307.84,294.44c6.96,0.656,12.38,5.507,12.38,11.391c0,3.401-1.81,6.466-4.69,8.564
					c-0.66,0.483-1.38,0.918-2.15,1.295l9.74,33.296h-26.19l8.97-32.657c-5.24-1.655-8.97-5.818-8.97-10.703
					C296.93,300.16,301.6,295.595,307.84,294.44z"/>
				<path style="fill:#433C85;" d="M315.53,314.394c2.88-2.098,4.69-5.163,4.69-8.564c0-5.884-5.42-10.735-12.38-11.391
					c0.99-0.18,2.03-0.279,3.09-0.279c7.72,0,13.99,5.13,13.99,11.465c0,4.188-2.74,7.859-6.84,9.858L315.53,314.394z"/>
				<path style="fill:#433C85;" d="M318.08,315.484l9.8,33.501h-4.76l-9.74-33.296c0.77-0.377,1.49-0.811,2.15-1.295L318.08,315.484
					z"/>
			</g>
		</g>
		<g>
			<path style="fill:#FFD05A;" d="M362.181,245.839c-0.598-0.843-1.941-1.154-2.789-0.476c-4.779,3.818-9.558,7.636-14.337,11.454
				c-0.843,0.673-1.126,1.871-0.476,2.788c0.598,0.843,1.941,1.154,2.789,0.476c4.779-3.818,9.558-7.636,14.337-11.454
				C362.548,247.954,362.831,246.757,362.181,245.839z"/>
			<path style="fill:#FFD05A;" d="M378.017,265.52c-10.564,0.613-21.128,1.226-31.692,1.839c-2.572,0.149-2.221,4.134,0.349,3.985
				c10.564-0.613,21.128-1.226,31.692-1.839C380.937,269.356,380.586,265.371,378.017,265.52z"/>
			<path style="fill:#FFD05A;" d="M361.269,285.294c-4.541-2.225-9.081-4.45-13.622-6.676c-0.97-0.475-2.206-0.013-2.663,0.953
				c-0.469,0.991-0.019,2.187,0.953,2.663c4.541,2.225,9.081,4.45,13.622,6.676c0.97,0.475,2.206,0.013,2.663-0.953
				C362.691,286.966,362.241,285.771,361.269,285.294z"/>
		</g>
	</g>
</g>
</svg>
