<?xml version="1.0" encoding="utf-8"?>
<!-- Generator: Adobe Illustrator 27.5.0, SVG Export Plug-In . SVG Version: 6.00 Build 0)  -->
<svg version="1.1" xmlns="http://www.w3.org/2000/svg" xmlns:xlink="http://www.w3.org/1999/xlink" x="0px" y="0px"
	 viewBox="0 0 500 500" style="enable-background:new 0 0 500 500;" xml:space="preserve">
<g id="BACKGROUND">
</g>
<g id="OBJECTS">
	<g>
		<g>
			
				<ellipse transform="matrix(0.7071 -0.7071 0.7071 0.7071 -103.5534 250)" style="opacity:0.64;fill:#C4C6FF;" cx="250" cy="250" rx="183.216" ry="183.216"/>
			
				<ellipse transform="matrix(0.7071 -0.7071 0.7071 0.7071 -103.5534 250)" style="opacity:0.64;fill:none;stroke:#FFFFFF;stroke-miterlimit:10;" cx="250" cy="250" rx="173.034" ry="173.034"/>
			
				<ellipse transform="matrix(0.7071 -0.7071 0.7071 0.7071 -103.5534 250)" style="opacity:0.64;fill:none;stroke:#C4C6FF;stroke-miterlimit:10;" cx="250" cy="250" rx="193.127" ry="193.127"/>
			<circle style="opacity:0.38;fill:#FFFFFF;" cx="250" cy="250" r="162.21"/>
			<circle style="opacity:0.38;fill:none;stroke:#2B1F5D;stroke-miterlimit:10;" cx="250" cy="250" r="86.167"/>
			<circle style="opacity:0.38;fill:none;stroke:#2B1F5D;stroke-miterlimit:10;" cx="250" cy="250" r="45.422"/>
		</g>
		<g style="opacity:0.64;">
			<path style="fill:#C4C6FF;" d="M373.13,250c0,12.319-19.373,21.426-22.983,32.542c-3.741,11.521,6.45,30.251-0.53,39.841
				c-7.049,9.686-28.058,5.746-37.744,12.795c-9.59,6.979-12.296,28.215-23.816,31.955c-11.116,3.609-25.738-11.862-38.058-11.862
				c-12.319,0-26.941,15.472-38.057,11.862c-11.521-3.741-14.227-24.976-23.817-31.956c-9.686-7.049-30.695-3.109-37.744-12.795
				c-6.979-9.59,3.211-28.32-0.529-39.841C146.243,271.426,126.87,262.32,126.87,250c0-12.319,19.373-21.426,22.983-32.542
				c3.741-11.521-6.45-30.251,0.53-39.841c7.049-9.686,28.058-5.746,37.744-12.795c9.59-6.979,12.295-28.214,23.816-31.955
				c11.116-3.61,25.738,11.862,38.058,11.862c12.319,0,26.941-15.472,38.057-11.863c11.521,3.741,14.227,24.976,23.817,31.956
				c9.686,7.049,30.695,3.109,37.744,12.795c6.979,9.59-3.211,28.32,0.53,39.841C353.757,228.574,373.13,237.68,373.13,250z"/>
		</g>
		<g style="opacity:0.64;">
			<g>
				<path style="fill:#C4C6FF;" d="M209.122,389.931c-1.498,0-2.958-0.205-4.37-0.663c-7.795-2.531-12.262-11.625-16.581-20.42
					c-3.361-6.843-6.837-13.919-11.779-17.516c-5.025-3.658-12.9-4.802-20.515-5.907c-9.622-1.397-19.572-2.843-24.318-9.364
					c-4.684-6.436-3.009-16.282-1.39-25.804c1.299-7.638,2.642-15.536,0.691-21.543c-1.844-5.68-7.178-10.854-12.826-16.332
					c-7.095-6.882-14.431-13.998-14.431-22.382c0-8.384,7.336-15.499,14.431-22.381c5.647-5.478,10.981-10.652,12.826-16.332
					c1.951-6.007,0.607-13.906-0.691-21.543c-1.619-9.523-3.293-19.369,1.39-25.805c4.746-6.521,14.696-7.966,24.318-9.364
					c7.615-1.105,15.489-2.249,20.514-5.907c4.942-3.597,8.417-10.673,11.779-17.516c4.32-8.795,8.787-17.889,16.581-20.42
					c7.409-2.407,16.157,2.181,24.616,6.615c6.955,3.646,14.147,7.416,20.633,7.416c6.486,0,13.677-3.77,20.632-7.416
					c8.461-4.436,17.211-9.018,24.616-6.615c7.795,2.531,12.262,11.625,16.582,20.42c3.36,6.843,6.836,13.919,11.778,17.516
					c5.026,3.657,12.9,4.801,20.515,5.907c9.622,1.398,19.572,2.843,24.318,9.364c4.684,6.436,3.009,16.282,1.39,25.804
					c-1.299,7.638-2.642,15.536-0.691,21.543c1.845,5.679,7.179,10.854,12.826,16.332c7.095,6.882,14.431,13.998,14.431,22.382
					c0,8.383-7.336,15.499-14.431,22.381c-5.647,5.479-10.981,10.652-12.826,16.332c-1.95,6.008-0.607,13.905,0.691,21.544
					c1.619,9.521,3.294,19.368-1.39,25.804c-4.746,6.521-14.695,7.967-24.317,9.364c-7.615,1.105-15.489,2.249-20.516,5.907
					c-4.942,3.597-8.418,10.673-11.779,17.516c-4.319,8.794-8.786,17.888-16.581,20.419c-7.409,2.404-16.156-2.18-24.616-6.615
					c-6.955-3.646-14.146-7.416-20.632-7.416c-6.486,0-13.678,3.771-20.633,7.417C222.52,386.241,215.483,389.93,209.122,389.931z
					 M209.197,111.054c-1.418,0-2.799,0.195-4.137,0.63c-7.393,2.4-11.765,11.302-15.993,19.91
					c-3.415,6.952-6.946,14.141-12.087,17.883c-5.226,3.803-13.224,4.964-20.959,6.088c-9.417,1.368-19.155,2.782-23.653,8.963
					c-4.435,6.095-2.797,15.73-1.213,25.048c1.319,7.757,2.683,15.778,0.657,22.02c-1.921,5.916-7.594,11.419-13.081,16.741
					c-6.945,6.737-14.127,13.703-14.127,21.663c0,7.962,7.182,14.927,14.127,21.665c5.486,5.322,11.16,10.825,13.081,16.741
					c2.026,6.241,0.663,14.262-0.657,22.018c-1.584,9.318-3.223,18.953,1.213,25.049c4.498,6.181,14.236,7.595,23.653,8.962
					c7.735,1.124,15.734,2.286,20.96,6.089c5.142,3.742,8.673,10.932,12.088,17.884c4.228,8.608,8.6,17.509,15.993,19.909
					c7.011,2.278,15.185-2.012,23.842-6.55c7.063-3.703,14.366-7.531,21.098-7.531c6.732,0,14.035,3.828,21.096,7.53
					c8.658,4.538,16.834,8.824,23.844,6.55c7.393-2.4,11.765-11.301,15.992-19.909c3.415-6.952,6.946-14.141,12.089-17.883
					c5.226-3.803,13.224-4.965,20.959-6.089c9.418-1.367,19.155-2.781,23.653-8.962c4.436-6.096,2.797-15.73,1.213-25.049
					c-1.319-7.757-2.684-15.778-0.657-22.02c1.921-5.916,7.595-11.419,13.081-16.741c6.945-6.736,14.127-13.703,14.127-21.664
					c0-7.96-7.182-14.927-14.127-21.664c-5.486-5.322-11.16-10.825-13.081-16.741c-2.026-6.241-0.662-14.263,0.657-22.02
					c1.584-9.318,3.223-18.953-1.213-25.047c-4.498-6.181-14.236-7.595-23.653-8.963c-7.735-1.124-15.733-2.285-20.959-6.088
					c-5.142-3.743-8.674-10.932-12.089-17.884c-4.228-8.608-8.6-17.509-15.992-19.909c-7.009-2.276-15.186,2.012-23.843,6.549
					c-7.063,3.703-14.365,7.531-21.097,7.531c-6.732,0-14.035-3.828-21.097-7.531C221.898,114.561,215.208,111.054,209.197,111.054z
					"/>
			</g>
		</g>
		<g>
			<g style="opacity:0.64;">
				<g>
					<g>
						<g style="opacity:0.51;">
							<g>
								<g>
									
										<rect x="248.946" y="32.791" transform="matrix(0.9998 -0.0177 0.0177 0.9998 -1.9132 4.4489)" style="fill:#C4C6FF;" width="2.108" height="154.708"/>
								</g>
								<path style="fill:#C4C6FF;" d="M252.126,26.355c0,1.174-0.952,2.126-2.126,2.126c-1.174,0-2.126-0.952-2.126-2.126
									c0-1.174,0.952-2.126,2.126-2.126C251.174,24.229,252.126,25.181,252.126,26.355z"/>
							</g>
						</g>
						<g style="opacity:0.51;">
							<g>
								<g>
									
										<rect x="248.946" y="312.501" transform="matrix(0.9998 -0.0177 0.0177 0.9998 -6.8714 4.4928)" style="fill:#C4C6FF;" width="2.108" height="154.708"/>
								</g>
								<path style="fill:#C4C6FF;" d="M247.874,473.645c0-1.174,0.952-2.126,2.126-2.126c1.174,0,2.126,0.952,2.126,2.126
									c0,1.174-0.952,2.126-2.126,2.126C248.826,475.771,247.874,474.819,247.874,473.645z"/>
							</g>
						</g>
					</g>
					<g>
						<g style="opacity:0.51;">
							<g>
								<g>
									
										<rect x="312.501" y="248.946" transform="matrix(0.9998 -0.0177 0.0177 0.9998 -4.3703 6.95)" style="fill:#C4C6FF;" width="154.708" height="2.108"/>
								</g>
								<path style="fill:#C4C6FF;" d="M473.645,252.126c-1.174,0-2.126-0.952-2.126-2.126s0.952-2.126,2.126-2.126
									c1.174,0,2.126,0.952,2.126,2.126S474.819,252.126,473.645,252.126z"/>
							</g>
						</g>
						<g style="opacity:0.51;">
							<g>
								<g>
									
										<rect x="32.791" y="248.946" transform="matrix(0.9998 -0.0177 0.0177 0.9998 -4.4143 1.9917)" style="fill:#C4C6FF;" width="154.708" height="2.108"/>
								</g>
								<path style="fill:#C4C6FF;" d="M26.355,247.874c1.174,0,2.126,0.952,2.126,2.126s-0.952,2.126-2.126,2.126
									c-1.174,0-2.126-0.952-2.126-2.126S25.181,247.874,26.355,247.874z"/>
							</g>
						</g>
					</g>
					<g>
						<g style="opacity:0.51;">
							<g>
								<g>
									
										<rect x="357.254" y="261.127" transform="matrix(0.6188 -0.7855 0.7855 0.6188 -129.309 410.4764)" style="fill:#C4C6FF;" width="2.108" height="154.708"/>
								</g>
								<path style="fill:#C4C6FF;" d="M421.852,393.137c-0.909-0.743-1.044-2.082-0.301-2.991c0.743-0.909,2.082-1.044,2.991-0.301
									c0.909,0.743,1.044,2.082,0.301,2.991S422.762,393.88,421.852,393.137z"/>
							</g>
						</g>
						<g style="opacity:0.51;">
							<g>
								<g>
									
										<rect x="140.638" y="84.166" transform="matrix(0.6188 -0.7855 0.7855 0.6188 -72.8688 172.8683)" style="fill:#C4C6FF;" width="2.108" height="154.708"/>
								</g>
								<path style="fill:#C4C6FF;" d="M78.148,106.863c0.909,0.743,1.044,2.082,0.301,2.991c-0.743,0.909-2.082,1.044-2.991,0.301
									c-0.909-0.743-1.044-2.082-0.301-2.991C75.899,106.255,77.238,106.12,78.148,106.863z"/>
							</g>
						</g>
					</g>
					<g>
						<g style="opacity:0.51;">
							<g>
								<g>
									
										<rect x="84.166" y="357.254" transform="matrix(0.6188 -0.7855 0.7855 0.6188 -219.8929 263.4523)" style="fill:#C4C6FF;" width="154.708" height="2.108"/>
								</g>
								<path style="fill:#C4C6FF;" d="M106.863,421.852c0.743-0.909,2.082-1.044,2.991-0.301c0.909,0.743,1.044,2.082,0.301,2.991
									c-0.743,0.909-2.082,1.044-2.991,0.301C106.255,424.101,106.12,422.762,106.863,421.852z"/>
							</g>
						</g>
						<g style="opacity:0.51;">
							<g>
								<g>
									
										<rect x="261.127" y="140.638" transform="matrix(0.6188 -0.7855 0.7855 0.6188 17.7151 319.8925)" style="fill:#C4C6FF;" width="154.708" height="2.108"/>
								</g>
								<path style="fill:#C4C6FF;" d="M393.137,78.148c-0.743,0.909-2.082,1.044-2.991,0.301c-0.909-0.743-1.044-2.082-0.301-2.991
									c0.743-0.909,2.082-1.044,2.991-0.301C393.745,75.899,393.88,77.238,393.137,78.148z"/>
							</g>
						</g>
					</g>
				</g>
			</g>
			<g style="opacity:0.64;">
				<g>
					<g>
						<g style="opacity:0.51;">
							<g>
								<g>
									
										<rect x="225.314" y="143.653" transform="matrix(0.3157 -0.9489 0.9489 0.3157 59.426 371.3891)" style="fill:#FFFFFF;" width="123.746" height="1.686"/>
								</g>
								<path style="fill:#FFFFFF;" d="M311.071,81.852c-0.312,0.886-1.283,1.351-2.169,1.038c-0.886-0.312-1.351-1.283-1.039-2.169
									s1.283-1.351,2.169-1.038S311.383,80.966,311.071,81.852z"/>
							</g>
						</g>
						<g style="opacity:0.51;">
							<g>
								<g>
									
										<rect x="150.939" y="354.661" transform="matrix(0.3157 -0.9489 0.9489 0.3157 -191.6914 445.2186)" style="fill:#FFFFFF;" width="123.746" height="1.686"/>
								</g>
								<path style="fill:#FFFFFF;" d="M188.929,418.148c0.312-0.886,1.283-1.351,2.169-1.038s1.351,1.283,1.038,2.169
									c-0.312,0.886-1.283,1.351-2.169,1.038S188.617,419.034,188.929,418.148z"/>
							</g>
						</g>
					</g>
					<g>
						<g style="opacity:0.51;">
							<g>
								<g>
									
										<rect x="354.661" y="225.314" transform="matrix(0.3157 -0.9489 0.9489 0.3157 -29.218 533.8625)" style="fill:#FFFFFF;" width="1.686" height="123.746"/>
								</g>
								<path style="fill:#FFFFFF;" d="M418.148,311.071c-0.886-0.312-1.351-1.283-1.038-2.169c0.312-0.886,1.283-1.351,2.169-1.038
									c0.886,0.312,1.351,1.283,1.038,2.169C420.005,310.918,419.034,311.383,418.148,311.071z"/>
							</g>
						</g>
						<g style="opacity:0.51;">
							<g>
								<g>
									
										<rect x="143.653" y="150.939" transform="matrix(0.3157 -0.9489 0.9489 0.3157 -103.0475 282.7451)" style="fill:#FFFFFF;" width="1.686" height="123.746"/>
								</g>
								<path style="fill:#FFFFFF;" d="M81.852,188.929c0.886,0.312,1.351,1.283,1.038,2.169c-0.312,0.886-1.283,1.351-2.169,1.038
									c-0.886-0.312-1.351-1.283-1.038-2.169C79.995,189.082,80.966,188.617,81.852,188.929z"/>
							</g>
						</g>
					</g>
					<g>
						<g style="opacity:0.51;">
							<g>
								<g>
									
										<rect x="307.335" y="283.674" transform="matrix(0.8448 -0.5351 0.5351 0.8448 -137.0743 218.556)" style="fill:#FFFFFF;" width="1.686" height="123.746"/>
								</g>
								<path style="fill:#FFFFFF;" d="M341.582,403.676c-0.488-0.802-0.234-1.848,0.568-2.337c0.802-0.488,1.848-0.234,2.337,0.568
									c0.488,0.802,0.234,1.848-0.568,2.337C343.117,404.732,342.07,404.478,341.582,403.676z"/>
							</g>
						</g>
						<g style="opacity:0.51;">
							<g>
								<g>
									
										<rect x="190.978" y="92.58" transform="matrix(0.8448 -0.5351 0.5351 0.8448 -52.876 126.6258)" style="fill:#FFFFFF;" width="1.686" height="123.746"/>
								</g>
								<path style="fill:#FFFFFF;" d="M158.418,96.324c0.488,0.802,0.234,1.848-0.568,2.337c-0.802,0.488-1.848,0.234-2.337-0.568
									s-0.234-1.848,0.568-2.337C156.883,95.268,157.929,95.522,158.418,96.324z"/>
							</g>
						</g>
					</g>
					<g>
						<g style="opacity:0.51;">
							<g>
								<g>
									
										<rect x="92.58" y="307.335" transform="matrix(0.8448 -0.5351 0.5351 0.8448 -140.9402 130.4918)" style="fill:#FFFFFF;" width="123.746" height="1.686"/>
								</g>
								<path style="fill:#FFFFFF;" d="M96.324,341.582c0.802-0.488,1.848-0.234,2.337,0.568c0.488,0.802,0.234,1.848-0.568,2.337
									c-0.802,0.488-1.848,0.234-2.337-0.568C95.268,343.117,95.522,342.07,96.324,341.582z"/>
							</g>
						</g>
						<g style="opacity:0.51;">
							<g>
								<g>
									
										<rect x="283.674" y="190.978" transform="matrix(0.8448 -0.5351 0.5351 0.8448 -49.01 214.6901)" style="fill:#FFFFFF;" width="123.746" height="1.686"/>
								</g>
								<path style="fill:#FFFFFF;" d="M403.676,158.418c-0.802,0.488-1.848,0.234-2.337-0.568
									c-0.488-0.802-0.234-1.848,0.568-2.337c0.802-0.488,1.848-0.234,2.337,0.568
									C404.732,156.883,404.478,157.93,403.676,158.418z"/>
							</g>
						</g>
					</g>
				</g>
			</g>
		</g>
	</g>
	<g>
		<polygon style="fill:#4E67C3;" points="451.539,319.47 449.467,314.71 444.641,312.797 449.401,310.724 451.314,305.898 
			453.386,310.658 458.212,312.572 453.381,314.725 		"/>
		<polygon style="fill:#4E67C3;" points="443.02,308.72 441.567,305.382 438.184,304.041 441.521,302.588 442.863,299.204 
			444.316,302.542 447.699,303.883 444.312,305.393 		"/>
		<polygon style="fill:#4E67C3;" points="435.399,315.544 434.446,313.356 432.228,312.476 434.416,311.524 435.296,309.305 
			436.248,311.493 438.467,312.373 436.246,313.363 		"/>
	</g>
	<g>
		<polygon style="fill:#4E67C3;" points="79.585,233.945 77.512,229.185 72.686,227.271 77.446,225.199 79.36,220.373 
			81.432,225.133 86.258,227.046 81.427,229.2 		"/>
		<polygon style="fill:#4E67C3;" points="71.066,223.195 69.613,219.857 66.23,218.516 69.567,217.063 70.909,213.679 
			72.361,217.016 75.745,218.358 72.358,219.868 		"/>
		<polygon style="fill:#4E67C3;" points="63.445,230.019 62.492,227.831 60.274,226.951 62.462,225.999 63.341,223.78 
			64.294,225.968 66.512,226.848 64.291,227.838 		"/>
	</g>
	<polygon style="opacity:0.35;fill:#FFFFFF;" points="310.748,282.335 308.377,213.558 247.629,181.223 189.252,217.665 
		191.623,286.442 252.371,318.777 	"/>
	<g style="opacity:0.65;">
		<path style="fill:#4E67C3;" d="M164.443,136.926c0,1.56-1.264,2.824-2.824,2.824s-2.824-1.264-2.824-2.824
			s1.264-2.824,2.824-2.824S164.443,135.366,164.443,136.926z"/>
		<path style="fill:#4E67C3;" d="M159.199,147.011c0,1.56-1.264,2.824-2.824,2.824c-1.56,0-2.824-1.264-2.824-2.824
			c0-1.56,1.264-2.824,2.824-2.824C157.934,144.187,159.199,145.451,159.199,147.011z"/>
		<path style="fill:#4E67C3;" d="M342.755,220.434c0,1.56-1.264,2.824-2.824,2.824c-1.56,0-2.824-1.264-2.824-2.824
			c0-1.56,1.264-2.824,2.824-2.824C341.491,217.61,342.755,218.874,342.755,220.434z"/>
		<path style="fill:#4E67C3;" d="M352.437,228.502c0,1.56-1.264,2.824-2.824,2.824c-1.56,0-2.824-1.264-2.824-2.824
			c0-1.56,1.264-2.824,2.824-2.824C351.173,225.678,352.437,226.942,352.437,228.502z"/>
		<path style="fill:#4E67C3;" d="M263.281,329.761c0,1.56-1.264,2.824-2.824,2.824c-1.56,0-2.824-1.264-2.824-2.824
			c0-1.56,1.264-2.824,2.824-2.824C262.017,326.937,263.281,328.201,263.281,329.761z"/>
		<path style="fill:#4E67C3;" d="M257.633,341.46c0,1.56-1.264,2.824-2.824,2.824c-1.56,0-2.824-1.264-2.824-2.824
			c0-1.56,1.264-2.824,2.824-2.824C256.369,338.636,257.633,339.9,257.633,341.46z"/>
		<circle style="fill:#FFFFFF;" cx="350.824" cy="304.345" r="2.023"/>
		<path style="fill:#FFFFFF;" d="M303.526,367.279c0,2.62-2.124,4.743-4.743,4.743c-2.62,0-4.743-2.124-4.743-4.743
			s2.124-4.743,4.743-4.743C301.402,362.536,303.526,364.659,303.526,367.279z"/>
		<path style="fill:#FFFFFF;" d="M154.496,200.263c0,2.028-1.644,3.672-3.672,3.672c-2.028,0-3.672-1.644-3.672-3.672
			c0-2.028,1.644-3.672,3.672-3.672C152.852,196.591,154.496,198.235,154.496,200.263z"/>
		<path style="fill:#FFFFFF;" d="M347.234,313.22c0,2.028-1.644,3.672-3.672,3.672c-2.028,0-3.672-1.644-3.672-3.672
			c0-2.028,1.644-3.672,3.672-3.672C345.59,309.549,347.234,311.193,347.234,313.22z"/>
		<path style="fill:#FFFFFF;" d="M163.583,189.774c0,1.553-1.259,2.811-2.811,2.811c-1.553,0-2.811-1.259-2.811-2.811
			c0-1.553,1.259-2.811,2.811-2.811C162.324,186.962,163.583,188.221,163.583,189.774z"/>
		<circle style="fill:#4E67C3;" cx="151.937" cy="132.488" r="4.51"/>
	</g>
	<g>
		<path style="fill:#60C798;" d="M292.032,312.014c0,0-3.722,15.472-19.128,9.199C272.904,321.213,277.332,308.056,292.032,312.014z
			"/>
		<path style="fill:#60C798;" d="M185.393,171.729c0,0,2.268,15.751-14.365,15.625C171.029,187.354,170.273,173.493,185.393,171.729
			z"/>
		<path style="fill:#60C798;" d="M362.973,250.068c0,0,11.828,6.751,2.996,17.915C365.969,267.984,356.213,261.206,362.973,250.068z
			"/>
		<path style="fill:#60C798;" d="M145.932,266.205c0,0,11.828,6.751,2.996,17.915C148.928,284.121,139.172,277.343,145.932,266.205z
			"/>
	</g>
	<g>
		<g>
			<g>
				<path style="fill:#4E67C3;" d="M225.05,228.553c-0.256,0-0.512-0.098-0.707-0.293l-11.296-11.296
					c-0.391-0.391-0.391-1.024,0-1.414c0.391-0.391,1.023-0.391,1.414,0l11.296,11.296c0.391,0.391,0.391,1.023,0,1.414
					C225.562,228.456,225.306,228.553,225.05,228.553z"/>
			</g>
			<g>
				<path style="fill:#4E67C3;" d="M272.654,228.553c-0.256,0-0.512-0.098-0.707-0.293c-0.391-0.391-0.391-1.023,0-1.414
					l11.296-11.296c0.391-0.391,1.023-0.391,1.414,0s0.391,1.023,0,1.414l-11.296,11.296
					C273.166,228.456,272.91,228.553,272.654,228.553z"/>
			</g>
			<g>
				<g>
					<path style="fill:none;stroke:#4E67C3;stroke-miterlimit:10;" d="M287.177,250.952c0,0-16.797,24.517-37.518,24.517
						c-20.721,0-37.518-24.517-37.518-24.517s16.797-24.517,37.518-24.517C270.379,226.435,287.177,250.952,287.177,250.952z"/>
					
						<ellipse transform="matrix(0.2279 -0.9737 0.9737 0.2279 -46.4066 432.0829)" style="fill:#4E67C3;" cx="249.255" cy="245.304" rx="18.557" ry="18.557"/>
					<polygon style="fill:#FFFFFF;" points="249.7,259.551 245.202,249.619 235.008,245.749 244.941,241.251 248.81,231.057 
						253.308,240.99 263.502,244.859 253.422,249.53 					"/>
				</g>
				<g>
					<path style="fill:#4E67C3;" d="M247.704,221.97c-0.503,0-0.937-0.379-0.993-0.891l-1.742-15.879
						c-0.06-0.549,0.336-1.042,0.885-1.103c0.533-0.064,1.042,0.336,1.103,0.885l1.742,15.879c0.06,0.549-0.336,1.042-0.885,1.103
						C247.778,221.968,247.741,221.97,247.704,221.97z"/>
				</g>
				<g>
					<path style="fill:#4E67C3;" d="M274.671,278.723c0.256,0,0.512,0.098,0.707,0.293l11.296,11.296
						c0.391,0.391,0.391,1.023,0,1.414c-0.391,0.391-1.024,0.391-1.414,0l-11.296-11.296c-0.391-0.391-0.391-1.023,0-1.414
						C274.159,278.82,274.415,278.723,274.671,278.723z"/>
				</g>
				<g>
					<path style="fill:#4E67C3;" d="M227.067,278.723c0.256,0,0.512,0.098,0.707,0.293c0.391,0.391,0.391,1.023,0,1.414
						l-11.296,11.296c-0.391,0.391-1.023,0.391-1.414,0c-0.391-0.391-0.391-1.023,0-1.414l11.296-11.296
						C226.555,278.82,226.811,278.723,227.067,278.723z"/>
				</g>
				<g>
					<path style="fill:#4E67C3;" d="M252.017,285.306c0.503,0,0.936,0.379,0.993,0.891l1.742,15.879
						c0.06,0.549-0.336,1.043-0.885,1.103c-0.533,0.065-1.042-0.335-1.103-0.885l-1.742-15.879c-0.06-0.549,0.336-1.043,0.885-1.103
						C251.943,285.308,251.98,285.306,252.017,285.306z"/>
				</g>
			</g>
		</g>
		<path style="opacity:0.64;fill:#FFFFFF;" d="M295.626,213.603c31.094,4.854,52.259,14.438,52.259,25.47
			c0,15.934-44.147,28.851-98.604,28.851s-98.604-12.917-98.604-28.851c0-9.587,15.986-18.08,40.579-23.327
			c-32.043,6.107-53.407,17.06-53.407,29.557c0,19.161,50.212,34.694,112.151,34.694s112.151-15.533,112.151-34.694
			C362.151,231.169,334.825,219.01,295.626,213.603z"/>
		<path style="opacity:0.64;fill:#FFFFFF;" d="M275.646,209.803c18.027,2.814,30.298,8.371,30.298,14.767
			c0,9.238-25.595,16.727-57.169,16.727c-31.573,0-57.168-7.489-57.168-16.727c0-5.558,9.268-10.483,23.527-13.524
			c-18.578,3.541-30.964,9.891-30.964,17.137c0,11.109,29.112,20.115,65.023,20.115c35.911,0,65.023-9.006,65.023-20.115
			C314.216,219.988,298.373,212.938,275.646,209.803z"/>
		<g>
			<g>
				<polygon style="fill:#FFFFFF;" points="280.091,201.856 276.851,194.413 269.305,191.421 276.748,188.181 279.739,180.635 
					282.979,188.078 290.525,191.07 282.971,194.437 				"/>
				<polygon style="fill:#FFFFFF;" points="266.772,185.047 264.5,179.829 259.21,177.732 264.428,175.46 266.525,170.169 
					268.797,175.387 274.087,177.485 268.791,179.846 				"/>
				<polygon style="fill:#FFFFFF;" points="254.855,195.717 253.366,192.296 249.897,190.921 253.318,189.431 254.693,185.963 
					256.183,189.384 259.652,190.759 256.179,192.307 				"/>
			</g>
			<g>
				<polygon style="fill:#FFFFFF;" points="230.348,333.124 227.232,325.966 219.974,323.088 227.132,319.971 230.01,312.714 
					233.126,319.872 240.384,322.75 233.118,325.988 				"/>
				<polygon style="fill:#FFFFFF;" points="217.537,316.957 215.352,311.938 210.263,309.92 215.282,307.735 217.3,302.647 
					219.485,307.666 224.574,309.683 219.479,311.954 				"/>
				<polygon style="fill:#FFFFFF;" points="206.075,327.22 204.642,323.929 201.306,322.607 204.597,321.174 205.92,317.838 
					207.352,321.128 210.689,322.451 207.348,323.94 				"/>
			</g>
			<g>
				<path style="fill:#FFFFFF;" d="M192.725,215.805c-0.552,0-1-0.448-1-1c0-3.716,3.475-5.515,6.54-7.103
					c2.808-1.454,5.46-2.828,5.46-5.327c0-2.499-2.652-3.872-5.46-5.327c-3.065-1.588-6.54-3.387-6.54-7.103
					c0-3.714,3.475-5.512,6.541-7.099c2.808-1.453,5.459-2.826,5.459-5.322c0-2.497-2.652-3.871-5.459-5.324
					c-3.066-1.587-6.541-3.386-6.541-7.101c0-3.714,3.475-5.512,6.541-7.099c2.808-1.453,5.459-2.826,5.459-5.322
					c0-0.552,0.448-1,1-1c0.552,0,1,0.448,1,1c0,3.714-3.475,5.512-6.54,7.099c-2.808,1.453-5.46,2.826-5.46,5.322
					c0,2.498,2.652,3.871,5.46,5.325c3.065,1.587,6.54,3.386,6.54,7.1c0,3.713-3.475,5.512-6.54,7.099
					c-2.808,1.453-5.46,2.826-5.46,5.323c0,2.499,2.652,3.873,5.46,5.327c3.065,1.588,6.54,3.387,6.54,7.103
					c0,3.716-3.475,5.515-6.54,7.103c-2.808,1.454-5.46,2.828-5.46,5.327C193.725,215.357,193.277,215.805,192.725,215.805z"/>
			</g>
			<g>
				<path style="fill:#FFFFFF;" d="M212.302,229.284c-0.473,0-0.856-0.383-0.856-0.856c0-3.182,2.976-4.724,5.601-6.084
					c2.405-1.245,4.676-2.422,4.676-4.562c0-2.14-2.271-3.317-4.676-4.562c-2.625-1.36-5.601-2.901-5.601-6.083
					c0-3.181,2.976-4.721,5.602-6.08c2.405-1.245,4.676-2.42,4.676-4.558c0-2.139-2.271-3.315-4.676-4.56
					c-2.626-1.36-5.602-2.9-5.602-6.082c0-3.181,2.976-4.721,5.602-6.08c2.405-1.245,4.676-2.42,4.676-4.558
					c0-0.473,0.383-0.856,0.856-0.856c0.473,0,0.857,0.383,0.857,0.856c0,3.181-2.976,4.721-5.602,6.08
					c-2.405,1.245-4.676,2.42-4.676,4.558c0,2.139,2.272,3.315,4.676,4.56c2.625,1.36,5.601,2.9,5.601,6.081
					c0,3.18-2.976,4.721-5.601,6.08c-2.405,1.244-4.676,2.42-4.676,4.559c0,2.14,2.271,3.317,4.676,4.562
					c2.625,1.36,5.601,2.901,5.601,6.084c0,3.182-2.976,4.724-5.601,6.083c-2.405,1.245-4.676,2.422-4.676,4.562
					C213.159,228.9,212.775,229.284,212.302,229.284z"/>
			</g>
			<g>
				<path style="fill:#FFFFFF;" d="M300.776,330.491c-0.552,0-1-0.448-1-1c0-3.716,3.475-5.515,6.54-7.103
					c2.808-1.454,5.46-2.828,5.46-5.327s-2.652-3.873-5.46-5.327c-3.065-1.588-6.54-3.387-6.54-7.103
					c0-3.714,3.475-5.512,6.54-7.099c2.808-1.453,5.46-2.826,5.46-5.322c0-2.497-2.652-3.871-5.46-5.324
					c-3.066-1.587-6.54-3.386-6.54-7.101c0-3.714,3.475-5.512,6.54-7.099c2.808-1.453,5.46-2.826,5.46-5.322c0-0.552,0.448-1,1-1
					c0.552,0,1,0.448,1,1c0,3.714-3.475,5.512-6.54,7.099c-2.808,1.453-5.46,2.826-5.46,5.322c0,2.498,2.652,3.871,5.46,5.325
					c3.065,1.587,6.54,3.386,6.54,7.101c0,3.713-3.475,5.512-6.54,7.099c-2.808,1.453-5.46,2.826-5.46,5.323
					c0,2.499,2.652,3.873,5.46,5.327c3.065,1.588,6.54,3.387,6.54,7.103c0,3.716-3.475,5.515-6.54,7.103
					c-2.808,1.454-5.46,2.828-5.46,5.327C301.776,330.043,301.328,330.491,300.776,330.491z"/>
			</g>
			<g>
				<path style="fill:#FFFFFF;" d="M320.353,343.97c-0.473,0-0.857-0.384-0.857-0.857c0-3.182,2.976-4.724,5.601-6.083
					c2.405-1.245,4.676-2.422,4.676-4.562c0-2.14-2.271-3.317-4.676-4.562c-2.625-1.36-5.601-2.901-5.601-6.083
					c0-3.181,2.976-4.721,5.602-6.08c2.405-1.245,4.676-2.42,4.676-4.558c0-2.139-2.271-3.315-4.676-4.56
					c-2.626-1.359-5.602-2.9-5.602-6.082c0-3.181,2.976-4.721,5.602-6.08c2.405-1.245,4.676-2.42,4.676-4.558
					c0-0.473,0.383-0.857,0.856-0.857c0.473,0,0.857,0.383,0.857,0.857c0,3.181-2.976,4.721-5.602,6.08
					c-2.405,1.245-4.676,2.42-4.676,4.558c0,2.139,2.272,3.315,4.676,4.56c2.625,1.36,5.601,2.9,5.601,6.081
					c0,3.18-2.976,4.721-5.601,6.08c-2.405,1.245-4.676,2.42-4.676,4.559c0,2.14,2.271,3.317,4.676,4.562
					c2.625,1.36,5.601,2.901,5.601,6.083c0,3.182-2.976,4.724-5.601,6.083c-2.405,1.245-4.676,2.422-4.676,4.562
					C321.21,343.587,320.826,343.97,320.353,343.97z"/>
			</g>
		</g>
	</g>
	<g>
		<g>
			<path style="fill:#4E67C3;" d="M251.566,435.103l-0.119-1.996c-0.338,0.017-34.178,1.796-73.251-15.185
				c-11.153-4.848-21.66-10.748-31.469-17.64c-0.487-4.021-3.229-26.693-3.958-33.255l-1.987,0.221
				c0.654,5.888,2.924,24.706,3.74,31.455c-7.994-5.803-15.508-12.278-22.503-19.407l0.069-0.125l-0.428-0.236
				c-1.205-1.234-2.397-2.484-3.571-3.757c-7.474-8.11-14.304-17.03-20.5-26.692c-0.046-0.591-2.416-31.475-2.416-35.407h-2
				c0,3.222,1.487,23.233,2.133,31.764c-10.336-16.875-18.775-35.947-25.188-57.067l-1.914,0.582
				c10.6,34.907,26.671,64.311,47.758,87.437l-33.409-18.408l-0.965,1.752l38.857,21.41c16.359,16.711,35.52,29.905,57.04,39.245
				c4.769,2.07,9.458,3.857,14.024,5.41c-6.914,0.881-22.781-0.437-33.471-1.773l-0.248,1.984c2.295,0.287,16.908,2.06,27.456,2.06
				c4.311,0,7.928-0.301,9.762-1.115c24.952,7.95,45.592,8.808,53.307,8.808C250.366,435.167,251.506,435.107,251.566,435.103z"/>
			<g>
				<g>
					<path style="fill:#2B1F5D;" d="M54.319,266.858l-0.796,0.119c-0.265-1.769-7.334-18.457-13.158-26.752l0.659-0.463
						C46.797,247.983,53.991,264.666,54.319,266.858z"/>
				</g>
				<g>
					<path style="fill:#2B1F5D;" d="M66.011,262.57c-0.075-0.192-7.525-19.353-11.585-29.131l0.743-0.309
						c4.064,9.786,11.517,28.955,11.592,29.148L66.011,262.57z"/>
				</g>
				<path style="fill:#2B1F5D;" d="M43.36,240.252c0.213,1.419-0.766,2.742-2.185,2.955c-1.419,0.212-2.742-0.766-2.955-2.185
					c-0.212-1.419,0.766-2.742,2.185-2.955C41.825,237.854,43.148,238.833,43.36,240.252z"/>
				<path style="fill:#2B1F5D;" d="M57.368,232.9c0.213,1.419-0.766,2.742-2.185,2.955c-1.419,0.212-2.742-0.766-2.955-2.185
					c-0.213-1.419,0.766-2.742,2.185-2.955C55.833,230.502,57.156,231.48,57.368,232.9z"/>
				<g>
					<path style="fill:#4E67C3;" d="M57.576,291.333c0,0-30.413-27.635-22.638-32.741c7.775-5.105,13.747,8.453,16.478,4.759
						c2.732-3.693-6.644-18.056,1.45-16.64s8.541,13.173,12.204,11.311c3.663-1.862,4.824-20.429,10.284-14.677
						c5.459,5.752,8.595,48.638-0.177,55.863C75.178,299.208,67.048,306.338,57.576,291.333z"/>
					<path style="opacity:0.6;fill:#4E67C3;" d="M73.176,297.455c-5.952-0.837-11.118-5.636-15.238-9.636
						c-5.727-5.56-10.765-11.858-15.315-18.404c-2.421-3.483-5.154-7.237-7.027-11.209c-0.218,0.116-0.437,0.241-0.658,0.386
						c-7.775,5.105,22.638,32.741,22.638,32.741c9.472,15.005,17.601,7.875,17.601,7.875c0.594-0.489,1.132-1.147,1.62-1.941
						C75.717,297.56,74.513,297.643,73.176,297.455z"/>
					<path style="opacity:0.53;fill:#FFFFFF;" d="M44.75,266.973c0.481,0.329,0.829,0.643,1.171,0.944
						c0.333,0.304,0.637,0.601,0.932,0.907c0.296,0.305,0.579,0.621,0.87,0.966c0.287,0.353,0.587,0.714,0.895,1.21
						c-0.574,0.126-1.117,0.023-1.616-0.168c-0.496-0.199-0.943-0.508-1.31-0.892c-0.368-0.384-0.658-0.843-0.837-1.346
						C44.685,268.087,44.603,267.541,44.75,266.973z"/>
					<path style="opacity:0.53;fill:#FFFFFF;" d="M54.917,273.33c0.425,0.184,0.7,0.375,0.954,0.565
						c0.244,0.193,0.444,0.392,0.617,0.611c0.174,0.219,0.32,0.46,0.451,0.742c0.126,0.29,0.246,0.603,0.324,1.061
						c-0.456,0.101-0.841,0.013-1.186-0.134c-0.34-0.155-0.631-0.388-0.854-0.674c-0.224-0.285-0.382-0.622-0.453-0.989
						C54.71,274.143,54.714,273.749,54.917,273.33z"/>
					<path style="opacity:0.53;fill:#FFFFFF;" d="M58.542,284.619c0.414,0.005,0.69,0.108,0.934,0.232
						c0.236,0.13,0.42,0.297,0.56,0.495c0.14,0.197,0.234,0.427,0.277,0.693c0.035,0.272,0.036,0.566-0.101,0.958
						c-0.415-0.004-0.692-0.106-0.936-0.231c-0.236-0.13-0.42-0.297-0.558-0.496c-0.138-0.199-0.233-0.428-0.275-0.694
						C58.409,285.305,58.406,285.01,58.542,284.619z"/>
					<path style="opacity:0.53;fill:#FFFFFF;" d="M56.141,255.418c0.483,0.104,0.829,0.306,1.142,0.529
						c0.305,0.229,0.559,0.495,0.769,0.792c0.21,0.297,0.373,0.625,0.486,0.99c0.104,0.371,0.175,0.764,0.108,1.256
						c-0.485-0.103-0.831-0.304-1.144-0.528c-0.305-0.229-0.559-0.495-0.767-0.793c-0.208-0.298-0.372-0.626-0.484-0.992
						C56.147,256.301,56.075,255.908,56.141,255.418z"/>
					<path style="opacity:0.53;fill:#FFFFFF;" d="M63.361,269.474c0.409,0.146,0.66,0.349,0.874,0.565
						c0.205,0.22,0.35,0.461,0.444,0.72c0.095,0.259,0.136,0.538,0.119,0.837c-0.026,0.303-0.091,0.62-0.315,0.994
						c-0.411-0.145-0.663-0.348-0.876-0.565c-0.205-0.22-0.35-0.461-0.442-0.721c-0.093-0.26-0.134-0.538-0.117-0.838
						C63.075,270.164,63.139,269.847,63.361,269.474z"/>
					<path style="opacity:0.53;fill:#FFFFFF;" d="M69.568,257.35c0.38,0.271,0.593,0.568,0.768,0.87
						c0.165,0.304,0.267,0.617,0.316,0.938c0.049,0.321,0.043,0.651-0.026,0.989c-0.078,0.34-0.196,0.686-0.482,1.057
						c-0.382-0.271-0.596-0.568-0.77-0.87c-0.165-0.304-0.267-0.617-0.314-0.938c-0.047-0.321-0.041-0.651,0.028-0.99
						C69.167,258.066,69.285,257.72,69.568,257.35z"/>
					<path style="opacity:0.53;fill:#FFFFFF;" d="M72.646,277.91c0.312,0.255,0.457,0.493,0.563,0.727
						c0.096,0.234,0.129,0.461,0.109,0.683c-0.02,0.222-0.097,0.439-0.235,0.65c-0.148,0.21-0.337,0.416-0.695,0.606
						c-0.314-0.255-0.46-0.493-0.566-0.728c-0.096-0.233-0.129-0.461-0.106-0.683c0.022-0.222,0.099-0.439,0.238-0.65
						C72.103,278.306,72.291,278.1,72.646,277.91z"/>
					<path style="opacity:0.53;fill:#FFFFFF;" d="M68.114,287.128c0.348,0.057,0.529,0.14,0.672,0.228
						c0.133,0.09,0.203,0.189,0.22,0.296c0.017,0.107-0.021,0.222-0.122,0.347c-0.11,0.126-0.26,0.258-0.578,0.415
						c-0.35-0.057-0.532-0.139-0.674-0.228c-0.133-0.09-0.203-0.189-0.218-0.296c-0.015-0.107,0.023-0.222,0.124-0.347
						C67.649,287.417,67.798,287.285,68.114,287.128z"/>
					<path style="opacity:0.53;fill:#FFFFFF;" d="M76.535,269.414c-0.303-0.224-0.439-0.42-0.538-0.61
						c-0.088-0.188-0.115-0.366-0.087-0.535c0.027-0.169,0.109-0.329,0.254-0.478c0.154-0.148,0.348-0.289,0.709-0.403
						c0.305,0.224,0.442,0.421,0.54,0.61c0.088,0.188,0.115,0.366,0.085,0.535c-0.029,0.169-0.111,0.329-0.256,0.478
						C77.087,269.159,76.894,269.3,76.535,269.414z"/>
				</g>
				<path style="fill:#60C798;" d="M72.389,300.94c0,0-12.682-0.072-14.813-9.607c0,0,7.958,1.436,11.097,3.594l-3.893-11.898
					c0,0,9.816,4.443,10.682,10.225l4.065-10.462C79.527,282.792,84.99,295.769,72.389,300.94z"/>
			</g>
			<g>
				<g>
					<path style="fill:#2B1F5D;" d="M95.721,304.415l-0.432-0.181c0.403-0.96,1.935-11.397,1.547-17.284l0.468-0.031
						C97.689,292.753,96.221,303.225,95.721,304.415z"/>
				</g>
				<g>
					<path style="fill:#2B1F5D;" d="M102.833,305.818c0.021-0.118,2.111-11.9,3.049-17.991l0.463,0.071
						c-0.938,6.096-3.029,17.883-3.05,18.001L102.833,305.818z"/>
				</g>
				<path style="fill:#2B1F5D;" d="M98.318,287.869c-0.324,0.77-1.21,1.132-1.98,0.809c-0.77-0.324-1.132-1.21-0.808-1.98
					c0.324-0.77,1.21-1.132,1.98-0.809C98.279,286.212,98.641,287.099,98.318,287.869z"/>
				<path style="fill:#2B1F5D;" d="M107.508,288.449c-0.324,0.77-1.21,1.132-1.98,0.809c-0.77-0.324-1.132-1.21-0.809-1.98
					c0.324-0.77,1.21-1.132,1.98-0.809C107.469,286.792,107.831,287.679,107.508,288.449z"/>
				<g>
					<path style="fill:#4E67C3;" d="M89.939,317.571c0,0-6.767-22.941-1.356-23.129c5.411-0.188,4.28,8.361,6.756,7.35
						c2.476-1.011,2.156-10.989,5.754-7.836c3.598,3.152,0.264,9.134,2.648,9.316c2.385,0.182,8.578-8.701,9.553-4.189
						c0.976,4.512-10.435,26.788-16.983,27.728C96.311,326.811,90.112,327.898,89.939,317.571z"/>
					<path style="opacity:0.6;fill:#4E67C3;" d="M95.846,325.334c-2.707-2.217-3.825-6.165-4.664-9.401
						c-1.167-4.497-1.767-9.152-2.05-13.784c-0.15-2.464-0.374-5.158-0.105-7.7c-0.143-0.008-0.29-0.012-0.444-0.007
						c-5.411,0.188,1.356,23.129,1.356,23.129c0.173,10.327,6.372,9.24,6.372,9.24c0.443-0.064,0.91-0.228,1.393-0.476
						C97.078,326.155,96.454,325.832,95.846,325.334z"/>
					<path style="opacity:0.53;fill:#FFFFFF;" d="M90.928,301.578c0.14,0.309,0.217,0.57,0.297,0.824
						c0.074,0.252,0.135,0.491,0.189,0.733c0.055,0.241,0.1,0.484,0.14,0.743c0.036,0.263,0.076,0.533,0.079,0.872
						c-0.323-0.111-0.562-0.326-0.753-0.572c-0.186-0.249-0.316-0.538-0.382-0.84c-0.067-0.302-0.072-0.618-0.009-0.923
						C90.559,302.112,90.683,301.816,90.928,301.578z"/>
					<path style="opacity:0.53;fill:#FFFFFF;" d="M94.061,307.814c0.156,0.22,0.235,0.398,0.303,0.569
						c0.063,0.17,0.102,0.329,0.122,0.491c0.02,0.162,0.02,0.325,0,0.505c-0.025,0.182-0.06,0.374-0.16,0.626
						c-0.257-0.088-0.422-0.248-0.549-0.425c-0.122-0.18-0.196-0.384-0.221-0.593c-0.025-0.21-0.002-0.425,0.074-0.629
						C93.712,308.155,93.834,307.961,94.061,307.814z"/>
					<path style="opacity:0.53;fill:#FFFFFF;" d="M92.45,314.525c0.204,0.128,0.31,0.262,0.394,0.398
						c0.078,0.136,0.119,0.275,0.129,0.415c0.01,0.141-0.013,0.283-0.072,0.428c-0.065,0.146-0.153,0.293-0.34,0.446
						c-0.205-0.128-0.312-0.262-0.396-0.398c-0.078-0.136-0.119-0.275-0.128-0.415c-0.009-0.141,0.014-0.283,0.073-0.428
						C92.176,314.825,92.264,314.678,92.45,314.525z"/>
					<path style="opacity:0.53;fill:#FFFFFF;" d="M100.087,299.276c0.209,0.198,0.32,0.403,0.408,0.609
						c0.082,0.206,0.128,0.415,0.143,0.626c0.015,0.211-0.003,0.424-0.058,0.639c-0.06,0.216-0.144,0.433-0.326,0.657
						c-0.21-0.198-0.321-0.402-0.409-0.609c-0.082-0.206-0.128-0.415-0.142-0.626c-0.013-0.211,0.005-0.424,0.059-0.639
						C99.823,299.717,99.906,299.5,100.087,299.276z"/>
					<path style="opacity:0.53;fill:#FFFFFF;" d="M99.427,308.45c0.159,0.196,0.223,0.373,0.264,0.546
						c0.035,0.171,0.035,0.335,0.003,0.493c-0.031,0.158-0.095,0.309-0.194,0.452c-0.105,0.143-0.233,0.281-0.457,0.399
						c-0.16-0.197-0.224-0.374-0.265-0.546c-0.035-0.171-0.035-0.335-0.002-0.492c0.033-0.157,0.096-0.308,0.195-0.452
						C99.076,308.707,99.204,308.569,99.427,308.45z"/>
					<path style="opacity:0.53;fill:#FFFFFF;" d="M106.181,304.298c0.107,0.25,0.123,0.462,0.119,0.665
						c-0.01,0.201-0.054,0.388-0.126,0.562c-0.073,0.175-0.175,0.336-0.312,0.484c-0.142,0.146-0.305,0.282-0.56,0.38
						c-0.108-0.25-0.125-0.463-0.12-0.666c0.01-0.201,0.054-0.388,0.128-0.562c0.074-0.174,0.176-0.336,0.313-0.484
						C105.765,304.533,105.927,304.396,106.181,304.298z"/>
					<path style="opacity:0.53;fill:#FFFFFF;" d="M101.493,315.453c0.078,0.221,0.078,0.383,0.06,0.532
						c-0.023,0.145-0.075,0.268-0.153,0.373c-0.077,0.104-0.181,0.189-0.314,0.252c-0.137,0.06-0.294,0.105-0.529,0.091
						c-0.079-0.222-0.08-0.384-0.061-0.533c0.023-0.145,0.075-0.268,0.154-0.372c0.078-0.104,0.182-0.189,0.315-0.251
						C101.103,315.486,101.259,315.44,101.493,315.453z"/>
					<path style="opacity:0.53;fill:#FFFFFF;" d="M96.452,318.667c0.156,0.134,0.221,0.229,0.265,0.316
						c0.039,0.085,0.044,0.155,0.02,0.214c-0.024,0.058-0.078,0.104-0.166,0.136c-0.093,0.029-0.207,0.049-0.413,0.031
						c-0.157-0.134-0.222-0.23-0.267-0.317c-0.039-0.085-0.044-0.155-0.019-0.213c0.025-0.058,0.079-0.104,0.167-0.135
						C96.133,318.67,96.247,318.65,96.452,318.667z"/>
					<path style="opacity:0.53;fill:#FFFFFF;" d="M105.997,312.405c-0.083-0.203-0.091-0.342-0.083-0.466
						c0.013-0.12,0.054-0.217,0.118-0.293c0.064-0.076,0.154-0.13,0.271-0.161c0.121-0.027,0.261-0.039,0.474,0.014
						c0.084,0.204,0.093,0.343,0.084,0.467c-0.013,0.12-0.054,0.217-0.119,0.292c-0.065,0.075-0.155,0.13-0.272,0.16
						C106.348,312.444,106.21,312.457,105.997,312.405z"/>
				</g>
				<path style="fill:#60C798;" d="M94.401,326.829c0,0-6.285-3.871-4.461-9.257c0,0,3.523,3.121,4.432,5.143l1.662-7.095
					c0,0,3.538,5.178,2.22,8.316l5.186-3.974C103.439,319.962,102.231,328.068,94.401,326.829z"/>
			</g>
			<g>
				<g>
					<path style="fill:#2B1F5D;" d="M74.679,353.102l-0.39,0.259c-0.576-0.867-8.421-7.92-13.538-10.855l0.233-0.407
						C66.055,345.008,73.965,352.027,74.679,353.102z"/>
				</g>
				<g>
					<path style="fill:#2B1F5D;" d="M79.784,347.956c-0.087-0.083-8.742-8.346-13.295-12.498l0.316-0.346
						c4.557,4.156,13.216,12.422,13.303,12.505L79.784,347.956z"/>
				</g>
				<path style="fill:#2B1F5D;" d="M62.336,341.78c0.462,0.696,0.273,1.635-0.423,2.097c-0.696,0.462-1.635,0.273-2.097-0.423
					c-0.462-0.696-0.273-1.635,0.423-2.097C60.935,340.895,61.874,341.085,62.336,341.78z"/>
				<path style="fill:#2B1F5D;" d="M67.906,334.448c0.462,0.696,0.273,1.635-0.423,2.097c-0.696,0.462-1.635,0.273-2.097-0.423
					c-0.462-0.696-0.273-1.635,0.423-2.097C66.506,333.563,67.444,333.752,67.906,334.448z"/>
				<g>
					<path style="fill:#C4C6FF;" d="M82.435,365.201c0,0-22.852-7.064-20.013-11.674c2.839-4.61,9.332,1.064,9.861-1.557
						c0.529-2.621-7.958-7.879-3.341-9.13s7.753,4.837,9.225,2.951c1.471-1.885-2.498-11.96,1.799-10.275
						s16.533,23.519,13.691,29.492C93.657,365.009,91.131,370.773,82.435,365.201z"/>
					<path style="opacity:0.6;fill:#4E67C3;" d="M92.169,364.579c-3.344,1.027-7.252-0.228-10.411-1.32
						c-4.391-1.518-8.601-3.594-12.615-5.923c-2.135-1.239-4.503-2.543-6.47-4.175c-0.086,0.115-0.171,0.235-0.251,0.366
						c-2.839,4.61,20.013,11.674,20.013,11.674c8.696,5.572,11.222-0.192,11.222-0.192c0.192-0.405,0.313-0.884,0.375-1.423
						C93.535,364.007,92.921,364.348,92.169,364.579z"/>
					<path style="opacity:0.53;fill:#FFFFFF;" d="M69.663,355.524c0.335,0.055,0.596,0.135,0.85,0.209
						c0.251,0.078,0.484,0.159,0.715,0.248c0.231,0.088,0.459,0.185,0.697,0.295c0.239,0.115,0.485,0.232,0.77,0.417
						c-0.271,0.208-0.583,0.287-0.893,0.31c-0.311,0.017-0.623-0.035-0.911-0.147c-0.288-0.112-0.555-0.282-0.773-0.503
						C69.903,356.127,69.725,355.859,69.663,355.524z"/>
					<path style="opacity:0.53;fill:#FFFFFF;" d="M76.591,356.366c0.27-0.008,0.462,0.025,0.642,0.063
						c0.176,0.042,0.331,0.097,0.476,0.17c0.146,0.073,0.282,0.163,0.421,0.28c0.138,0.122,0.278,0.257,0.432,0.48
						c-0.215,0.166-0.44,0.214-0.658,0.222c-0.217,0.002-0.428-0.049-0.616-0.145c-0.188-0.095-0.355-0.234-0.483-0.41
						C76.682,356.846,76.587,356.637,76.591,356.366z"/>
					<path style="opacity:0.53;fill:#FFFFFF;" d="M81.287,361.423c0.219-0.099,0.39-0.113,0.549-0.108
						c0.156,0.01,0.295,0.053,0.417,0.122c0.123,0.07,0.229,0.167,0.317,0.297c0.085,0.134,0.159,0.29,0.183,0.53
						c-0.22,0.1-0.391,0.115-0.55,0.109c-0.156-0.01-0.295-0.053-0.417-0.124c-0.122-0.07-0.228-0.168-0.316-0.298
						C81.386,361.817,81.313,361.663,81.287,361.423z"/>
					<path style="opacity:0.53;fill:#FFFFFF;" d="M72.816,346.622c0.28-0.064,0.512-0.043,0.733-0.003
						c0.218,0.046,0.417,0.123,0.6,0.228c0.184,0.104,0.351,0.238,0.5,0.402c0.146,0.17,0.281,0.36,0.367,0.635
						c-0.281,0.065-0.513,0.045-0.733,0.004c-0.217-0.046-0.417-0.123-0.6-0.229c-0.183-0.106-0.351-0.239-0.5-0.403
						C73.037,347.086,72.902,346.896,72.816,346.622z"/>
					<path style="opacity:0.53;fill:#FFFFFF;" d="M80.091,352.25c0.252-0.024,0.434,0.021,0.6,0.082
						c0.162,0.065,0.298,0.157,0.412,0.27c0.114,0.113,0.205,0.25,0.269,0.412c0.061,0.166,0.105,0.349,0.079,0.602
						c-0.253,0.025-0.435-0.02-0.601-0.081c-0.162-0.065-0.298-0.157-0.411-0.271c-0.113-0.114-0.204-0.251-0.268-0.413
						C80.11,352.684,80.066,352.501,80.091,352.25z"/>
					<path style="opacity:0.53;fill:#FFFFFF;" d="M80.371,344.327c0.267,0.049,0.453,0.153,0.62,0.269
						c0.162,0.119,0.293,0.259,0.398,0.416c0.105,0.157,0.183,0.332,0.23,0.528c0.043,0.198,0.066,0.41,0.007,0.676
						c-0.268-0.049-0.454-0.152-0.621-0.269c-0.162-0.119-0.293-0.259-0.397-0.417c-0.104-0.158-0.182-0.333-0.229-0.529
						C80.337,344.803,80.313,344.592,80.371,344.327z"/>
					<path style="opacity:0.53;fill:#FFFFFF;" d="M87.067,354.405c0.227,0.057,0.363,0.147,0.477,0.244
						c0.108,0.099,0.182,0.211,0.226,0.333c0.044,0.122,0.058,0.255,0.036,0.401c-0.026,0.147-0.075,0.302-0.217,0.491
						c-0.229-0.057-0.364-0.146-0.478-0.244c-0.108-0.099-0.182-0.211-0.225-0.334c-0.043-0.123-0.056-0.256-0.035-0.401
						C86.878,354.748,86.926,354.593,87.067,354.405z"/>
					<path style="opacity:0.53;fill:#FFFFFF;" d="M86.952,360.383c0.198-0.056,0.313-0.057,0.41-0.046
						c0.092,0.015,0.154,0.049,0.189,0.102c0.035,0.052,0.044,0.122,0.021,0.213c-0.027,0.094-0.074,0.2-0.202,0.361
						c-0.198,0.056-0.315,0.058-0.412,0.046c-0.092-0.014-0.154-0.049-0.188-0.102c-0.034-0.053-0.043-0.123-0.02-0.214
						C86.779,360.65,86.825,360.544,86.952,360.383z"/>
					<path style="opacity:0.53;fill:#FFFFFF;" d="M87.021,348.967c-0.215-0.043-0.335-0.113-0.434-0.189
						c-0.093-0.077-0.151-0.165-0.178-0.261c-0.028-0.096-0.024-0.2,0.016-0.315c0.045-0.116,0.112-0.238,0.274-0.387
						c0.216,0.043,0.337,0.113,0.436,0.189c0.093,0.077,0.151,0.165,0.177,0.261c0.026,0.096,0.022,0.201-0.017,0.315
						C87.249,348.697,87.182,348.819,87.021,348.967z"/>
				</g>
				<path style="fill:#60C798;" d="M92.614,366.609c0,0-6.703,3.091-10.179-1.409c0,0,4.55-1.207,6.737-0.844l-4.988-5.312
					c0,0,6.271-0.08,8.154,2.754l-0.438-6.518C91.899,355.281,97.981,360.774,92.614,366.609z"/>
			</g>
			<path style="fill:#60C798;" d="M144.196,380.853c0,0-13.716-8.068-3.227-20.978C140.969,359.876,152.265,367.944,144.196,380.853
				z"/>
			<path style="fill:#4E67C3;" d="M171.321,425.352c0,0-10.778,11.708-21.187-1.266
				C150.134,424.086,160.402,414.744,171.321,425.352z"/>
			<path style="fill:#4E67C3;" d="M205.785,428.647c0,0,1.502,15.842-15.105,14.91C190.68,443.557,190.597,429.676,205.785,428.647z
				"/>
			<path style="fill:#60C798;" d="M145.399,399.331c0,0-5.91-14.775,10.286-18.566C155.685,380.766,159.68,394.06,145.399,399.331z"
				/>
		</g>
		<g>
			<path style="fill:#4E67C3;" d="M254.807,435.373l0.048-1.999c0.338,0.005,34.22,0.57,72.66-17.801
				c10.972-5.244,21.261-11.518,30.816-18.757c0.342-4.035,2.27-26.791,2.763-33.376l1.994,0.149
				c-0.443,5.907-2.036,24.795-2.61,31.568c7.781-6.085,15.058-12.826,21.793-20.201l-0.073-0.122l0.42-0.251
				c1.159-1.277,2.307-2.568,3.434-3.883c7.178-8.372,13.685-17.532,19.53-27.41c0.024-0.592,1.286-31.541,1.145-35.47l1.999-0.072
				c0.115,3.22-0.654,23.271-0.993,31.82c9.725-17.235,17.474-36.597,23.126-57.933l1.934,0.513
				c-9.342,35.264-24.349,65.226-44.593,89.092l32.728-19.594l1.027,1.716l-38.065,22.789
				c-15.749,17.287-34.425,31.159-55.597,41.264c-4.692,2.24-9.314,4.193-13.821,5.91c6.941,0.632,22.751-1.253,33.386-2.971
				l0.319,1.974c-2.284,0.369-16.824,2.664-27.365,3.043c-4.308,0.154-7.934-0.016-9.796-0.765
				c-24.651,8.839-45.247,10.436-52.957,10.713C256.009,435.394,254.868,435.375,254.807,435.373z"/>
			<g>
				<g>
					<path style="fill:#2B1F5D;" d="M445.896,260.166l0.8,0.091c0.201-1.777,6.667-18.708,12.191-27.206l-0.675-0.439
						C452.738,241.033,446.146,257.963,445.896,260.166z"/>
				</g>
				<g>
					<path style="fill:#2B1F5D;" d="M434.058,256.3c0.068-0.195,6.826-19.611,10.533-29.528l-0.754-0.282
						c-3.711,9.926-10.472,29.35-10.54,29.545L434.058,256.3z"/>
				</g>
				<path style="fill:#2B1F5D;" d="M455.895,233.184c-0.161,1.426,0.864,2.713,2.29,2.875c1.426,0.161,2.713-0.864,2.874-2.29
					c0.161-1.426-0.864-2.713-2.29-2.875C457.343,230.733,456.056,231.758,455.895,233.184z"/>
				<path style="fill:#2B1F5D;" d="M441.632,226.338c-0.162,1.426,0.864,2.713,2.29,2.875c1.426,0.161,2.713-0.864,2.875-2.29
					c0.161-1.426-0.864-2.713-2.29-2.874C443.081,223.887,441.794,224.912,441.632,226.338z"/>
				<g>
					<path style="fill:#4E67C3;" d="M443.519,284.742c0,0,29.403-28.708,21.45-33.531c-7.953-4.823-13.435,8.94-16.297,5.347
						c-2.862-3.593,5.993-18.282-2.046-16.577c-8.039,1.705-8.063,13.471-11.79,11.741c-3.727-1.73-5.554-20.243-10.803-14.299
						c-5.25,5.944-6.846,48.915,2.179,55.821C426.211,293.243,434.591,300.076,443.519,284.742z"/>
					<path style="opacity:0.6;fill:#4E67C3;" d="M428.149,291.419c5.918-1.05,10.908-6.031,14.883-10.176
						c5.524-5.762,10.333-12.236,14.645-18.941c2.294-3.567,4.891-7.417,6.621-11.454c0.222,0.108,0.445,0.226,0.671,0.363
						c7.953,4.823-21.45,33.531-21.45,33.531c-8.928,15.334-17.308,8.501-17.308,8.501c-0.611-0.468-1.172-1.106-1.688-1.882
						C425.613,291.615,426.819,291.655,428.149,291.419z"/>
					<path style="opacity:0.53;fill:#FFFFFF;" d="M455.464,259.938c-0.469,0.346-0.805,0.673-1.136,0.986
						c-0.322,0.316-0.615,0.623-0.899,0.94c-0.284,0.316-0.556,0.642-0.835,0.997c-0.275,0.363-0.56,0.735-0.851,1.241
						c0.578,0.105,1.117-0.017,1.609-0.226c0.488-0.217,0.924-0.541,1.277-0.939c0.354-0.397,0.627-0.866,0.788-1.375
						C455.569,261.048,455.631,260.5,455.464,259.938z"/>
					<path style="opacity:0.53;fill:#FFFFFF;" d="M445.531,266.655c-0.419,0.199-0.686,0.4-0.933,0.599
						c-0.237,0.202-0.429,0.408-0.595,0.633c-0.166,0.225-0.303,0.471-0.424,0.758c-0.115,0.295-0.224,0.611-0.285,1.072
						c0.459,0.085,0.841-0.017,1.18-0.176c0.334-0.167,0.616-0.411,0.829-0.704c0.213-0.293,0.36-0.636,0.417-1.005
						C445.768,267.46,445.749,267.066,445.531,266.655z"/>
					<path style="opacity:0.53;fill:#FFFFFF;" d="M442.313,278.067c-0.413,0.02-0.685,0.132-0.925,0.265
						c-0.231,0.139-0.409,0.312-0.542,0.514c-0.133,0.202-0.219,0.435-0.252,0.703c-0.025,0.273-0.016,0.567,0.135,0.954
						c0.415-0.019,0.688-0.13,0.927-0.264c0.231-0.139,0.409-0.312,0.54-0.515c0.131-0.203,0.217-0.436,0.25-0.704
						C442.471,278.747,442.463,278.453,442.313,278.067z"/>
					<path style="opacity:0.53;fill:#FFFFFF;" d="M443.666,248.798c-0.479,0.122-0.817,0.335-1.123,0.57
						c-0.297,0.24-0.541,0.515-0.74,0.819c-0.199,0.304-0.351,0.638-0.45,1.007c-0.091,0.374-0.148,0.77-0.063,1.259
						c0.481-0.121,0.82-0.333,1.125-0.568c0.297-0.24,0.541-0.515,0.738-0.82c0.197-0.305,0.349-0.639,0.448-1.008
						C443.691,249.681,443.749,249.286,443.666,248.798z"/>
					<path style="opacity:0.53;fill:#FFFFFF;" d="M436.954,263.104c-0.404,0.161-0.647,0.373-0.853,0.596
						c-0.197,0.227-0.333,0.473-0.418,0.736c-0.085,0.262-0.117,0.542-0.089,0.841c0.037,0.302,0.113,0.616,0.35,0.982
						c0.405-0.16,0.65-0.372,0.855-0.596c0.197-0.227,0.333-0.473,0.416-0.736c0.083-0.263,0.115-0.543,0.087-0.842
						C437.264,263.783,437.189,263.469,436.954,263.104z"/>
					<path style="opacity:0.53;fill:#FFFFFF;" d="M430.316,251.21c-0.37,0.285-0.572,0.589-0.737,0.897
						c-0.154,0.309-0.245,0.626-0.283,0.949c-0.038,0.323-0.02,0.652,0.061,0.988c0.09,0.337,0.221,0.679,0.52,1.04
						c0.372-0.285,0.576-0.589,0.739-0.897c0.154-0.31,0.245-0.626,0.28-0.949c0.036-0.323,0.017-0.652-0.063-0.988
						C430.743,251.912,430.613,251.57,430.316,251.21z"/>
					<path style="opacity:0.53;fill:#FFFFFF;" d="M427.978,271.867c-0.303,0.266-0.439,0.509-0.537,0.747
						c-0.088,0.237-0.113,0.465-0.084,0.687c0.028,0.221,0.112,0.435,0.259,0.641c0.156,0.204,0.352,0.404,0.716,0.58
						c0.305-0.266,0.442-0.509,0.539-0.747c0.087-0.237,0.113-0.465,0.082-0.686c-0.03-0.221-0.114-0.435-0.261-0.641
						C428.535,272.243,428.34,272.044,427.978,271.867z"/>
					<path style="opacity:0.53;fill:#FFFFFF;" d="M432.837,280.917c-0.345,0.07-0.524,0.159-0.663,0.252
						c-0.13,0.094-0.196,0.196-0.209,0.303c-0.013,0.107,0.029,0.221,0.134,0.342c0.114,0.122,0.27,0.248,0.592,0.394
						c0.347-0.07,0.527-0.158,0.666-0.252c0.129-0.094,0.196-0.196,0.207-0.303c0.011-0.108-0.031-0.222-0.136-0.342
						C433.312,281.189,433.158,281.062,432.837,280.917z"/>
					<path style="opacity:0.53;fill:#FFFFFF;" d="M423.787,263.516c0.295-0.235,0.424-0.436,0.516-0.629
						c0.082-0.191,0.101-0.37,0.068-0.538c-0.033-0.168-0.121-0.325-0.271-0.469c-0.159-0.142-0.358-0.277-0.723-0.377
						c-0.297,0.235-0.427,0.436-0.518,0.629c-0.082,0.191-0.101,0.37-0.066,0.538c0.035,0.168,0.123,0.324,0.273,0.469
						C423.226,263.281,423.424,263.415,423.787,263.516z"/>
				</g>
				<path style="fill:#60C798;" d="M429.06,294.873c0,0,12.671-0.527,14.459-10.132c0,0-7.902,1.721-10.961,3.99l3.464-12.03
					c0,0-9.651,4.792-10.309,10.602l-4.438-10.31C421.276,276.993,416.282,290.157,429.06,294.873z"/>
			</g>
			<g>
				<g>
					<path style="fill:#2B1F5D;" d="M405.867,299.182l0.425-0.197c-0.437-0.945-2.342-11.32-2.165-17.217l-0.469-0.014
						C403.483,287.598,405.325,298.012,405.867,299.182z"/>
				</g>
				<g>
					<path style="fill:#2B1F5D;" d="M398.811,300.84c-0.025-0.117-2.536-11.817-3.692-17.87l-0.46,0.088
						c1.156,6.058,3.668,17.763,3.694,17.88L398.811,300.84z"/>
				</g>
				<path style="fill:#2B1F5D;" d="M402.679,282.74c0.351,0.758,1.25,1.088,2.008,0.737c0.758-0.351,1.088-1.25,0.737-2.008
					c-0.351-0.758-1.25-1.088-2.008-0.737C402.658,281.083,402.328,281.982,402.679,282.74z"/>
				<path style="fill:#2B1F5D;" d="M393.516,283.649c0.351,0.758,1.25,1.088,2.008,0.737c0.758-0.351,1.088-1.25,0.737-2.008
					c-0.351-0.758-1.25-1.088-2.008-0.737C393.495,281.992,393.165,282.891,393.516,283.649z"/>
				<g>
					<path style="fill:#4E67C3;" d="M412.117,312.123c0,0,5.94-23.169,0.526-23.163c-5.414,0.007-3.978,8.509-6.488,7.588
						s-2.549-10.904-6.031-7.625c-3.482,3.279,0.064,9.138-2.313,9.405c-2.377,0.267-8.884-8.388-9.697-3.844
						c-0.813,4.544,11.389,26.397,17.966,27.102C406.081,321.586,412.315,322.449,412.117,312.123z"/>
					<path style="opacity:0.6;fill:#4E67C3;" d="M406.493,320.092c2.626-2.312,3.601-6.298,4.324-9.562
						c1.005-4.536,1.438-9.21,1.555-13.849c0.062-2.468,0.189-5.168-0.171-7.698c0.143-0.013,0.29-0.022,0.443-0.023
						c5.414-0.007-0.526,23.163-0.526,23.163c0.197,10.326-6.036,9.462-6.036,9.462c-0.445-0.048-0.917-0.195-1.409-0.425
						C405.291,320.957,405.903,320.612,406.493,320.092z"/>
					<path style="opacity:0.53;fill:#FFFFFF;" d="M410.556,296.175c-0.128,0.314-0.197,0.578-0.267,0.834
						c-0.065,0.255-0.117,0.496-0.163,0.739c-0.046,0.243-0.083,0.487-0.114,0.748c-0.027,0.264-0.057,0.535-0.048,0.875
						c0.319-0.122,0.55-0.346,0.732-0.599c0.177-0.256,0.296-0.549,0.352-0.853c0.056-0.304,0.05-0.62-0.024-0.922
						C410.944,296.696,410.809,296.404,410.556,296.175z"/>
					<path style="opacity:0.53;fill:#FFFFFF;" d="M407.648,302.52c-0.148,0.226-0.22,0.406-0.283,0.58
						c-0.057,0.172-0.09,0.333-0.104,0.495c-0.015,0.162-0.008,0.326,0.019,0.505c0.032,0.181,0.074,0.372,0.182,0.619
						c0.254-0.097,0.413-0.263,0.534-0.445c0.116-0.184,0.182-0.391,0.199-0.601c0.017-0.21-0.013-0.425-0.097-0.626
						C408.009,302.849,407.881,302.659,407.648,302.52z"/>
					<path style="opacity:0.53;fill:#FFFFFF;" d="M409.499,309.168c-0.199,0.135-0.301,0.273-0.38,0.412
						c-0.073,0.139-0.109,0.279-0.114,0.42c-0.005,0.141,0.023,0.283,0.087,0.426c0.07,0.143,0.164,0.287,0.356,0.434
						c0.201-0.135,0.303-0.273,0.381-0.411c0.073-0.139,0.109-0.279,0.113-0.42c0.004-0.141-0.024-0.283-0.089-0.426
						C409.783,309.459,409.69,309.315,409.499,309.168z"/>
					<path style="opacity:0.53;fill:#FFFFFF;" d="M401.32,294.204c-0.202,0.205-0.305,0.414-0.386,0.623
						c-0.075,0.209-0.113,0.42-0.12,0.631c-0.007,0.211,0.019,0.424,0.081,0.637c0.068,0.214,0.159,0.428,0.349,0.645
						c0.203-0.205,0.307-0.414,0.387-0.623c0.075-0.209,0.113-0.419,0.119-0.631c0.006-0.211-0.02-0.424-0.082-0.637
						C401.6,294.635,401.509,294.421,401.32,294.204z"/>
					<path style="opacity:0.53;fill:#FFFFFF;" d="M402.309,303.348c-0.152,0.202-0.209,0.381-0.244,0.555
						c-0.029,0.172-0.023,0.336,0.015,0.492c0.037,0.156,0.106,0.305,0.21,0.445c0.11,0.139,0.243,0.272,0.471,0.382
						c0.153-0.202,0.211-0.381,0.245-0.555c0.029-0.172,0.023-0.336-0.016-0.492c-0.038-0.156-0.107-0.305-0.211-0.445
						C402.668,303.592,402.536,303.458,402.309,303.348z"/>
					<path style="opacity:0.53;fill:#FFFFFF;" d="M395.41,299.44c-0.098,0.254-0.107,0.466-0.095,0.669
						c0.017,0.201,0.068,0.385,0.146,0.557c0.079,0.172,0.187,0.33,0.329,0.473c0.147,0.14,0.315,0.271,0.573,0.36
						c0.099-0.254,0.108-0.467,0.096-0.67c-0.017-0.2-0.067-0.385-0.148-0.557c-0.08-0.171-0.188-0.329-0.33-0.472
						C395.835,299.66,395.667,299.53,395.41,299.44z"/>
					<path style="opacity:0.53;fill:#FFFFFF;" d="M400.495,310.421c-0.07,0.224-0.065,0.386-0.041,0.534
						c0.028,0.144,0.085,0.266,0.166,0.367c0.081,0.102,0.188,0.183,0.323,0.241c0.139,0.055,0.297,0.094,0.531,0.072
						c0.071-0.224,0.066-0.387,0.042-0.535c-0.028-0.144-0.085-0.266-0.167-0.366c-0.082-0.101-0.189-0.182-0.323-0.24
						C400.885,310.439,400.728,310.399,400.495,310.421z"/>
					<path style="opacity:0.53;fill:#FFFFFF;" d="M405.648,313.452c-0.151,0.139-0.212,0.237-0.254,0.326
						c-0.036,0.086-0.038,0.157-0.012,0.214c0.026,0.057,0.081,0.101,0.17,0.13c0.094,0.026,0.209,0.042,0.414,0.017
						c0.152-0.14,0.214-0.238,0.255-0.326c0.036-0.086,0.038-0.157,0.011-0.214c-0.027-0.057-0.082-0.101-0.171-0.129
						C405.967,313.443,405.852,313.427,405.648,313.452z"/>
					<path style="opacity:0.53;fill:#FFFFFF;" d="M395.885,307.535c0.076-0.206,0.079-0.345,0.066-0.469
						c-0.017-0.12-0.061-0.215-0.129-0.288c-0.067-0.074-0.158-0.125-0.276-0.151c-0.122-0.023-0.262-0.029-0.474,0.031
						c-0.076,0.207-0.08,0.346-0.067,0.47c0.017,0.12,0.061,0.215,0.13,0.287c0.068,0.073,0.159,0.124,0.277,0.151
						C395.535,307.588,395.674,307.595,395.885,307.535z"/>
				</g>
				<path style="fill:#60C798;" d="M407.991,321.535c0,0,6.142-4.094,4.127-9.411c0,0-3.409,3.245-4.245,5.299l-1.916-7.031
					c0,0-3.35,5.302-1.92,8.39l-5.325-3.785C398.712,314.997,400.21,323.054,407.991,321.535z"/>
			</g>
			<g>
				<g>
					<path style="fill:#2B1F5D;" d="M428.641,347.084l0.399,0.245c0.545-0.887,8.131-8.217,13.14-11.334l-0.248-0.398
						C436.969,338.686,429.316,345.984,428.641,347.084z"/>
				</g>
				<g>
					<path style="fill:#2B1F5D;" d="M423.355,342.125c0.084-0.086,8.438-8.654,12.839-12.967l-0.328-0.334
						c-4.405,4.317-12.763,12.888-12.846,12.974L423.355,342.125z"/>
				</g>
				<path style="fill:#2B1F5D;" d="M440.57,335.327c-0.437,0.712-0.214,1.643,0.498,2.08c0.712,0.437,1.643,0.214,2.08-0.498
					c0.437-0.712,0.214-1.643-0.498-2.08S441.007,334.615,440.57,335.327z"/>
				<path style="fill:#2B1F5D;" d="M434.741,328.199c-0.437,0.712-0.214,1.643,0.498,2.08c0.712,0.437,1.643,0.214,2.08-0.498
					c0.437-0.712,0.214-1.643-0.498-2.08C436.109,327.264,435.178,327.487,434.741,328.199z"/>
				<g>
					<path style="fill:#C4C6FF;" d="M421.324,359.453c0,0,22.584-7.878,19.582-12.383c-3.003-4.505-9.288,1.398-9.91-1.203
						c-0.622-2.6,7.671-8.159,3.012-9.244c-4.658-1.085-7.575,5.112-9.113,3.28c-1.538-1.831,2.068-12.042-2.167-10.204
						c-4.234,1.838-15.679,24.097-12.626,29.964C410.102,359.663,412.833,365.333,421.324,359.453z"/>
					<path style="opacity:0.6;fill:#4E67C3;" d="M411.574,359.18c3.379,0.907,7.239-0.488,10.357-1.692
						c4.334-1.674,8.466-3.901,12.394-6.371c2.09-1.315,4.409-2.703,6.316-4.404c0.09,0.112,0.179,0.229,0.264,0.357
						c3.003,4.505-19.582,12.383-19.582,12.383c-8.491,5.881-11.222,0.211-11.222,0.211c-0.207-0.397-0.345-0.872-0.426-1.409
						C410.188,358.657,410.814,358.976,411.574,359.18z"/>
					<path style="opacity:0.53;fill:#FFFFFF;" d="M433.741,349.325c-0.333,0.067-0.59,0.156-0.842,0.239
						c-0.248,0.087-0.478,0.177-0.706,0.274c-0.228,0.096-0.452,0.201-0.686,0.319c-0.234,0.124-0.477,0.249-0.755,0.444
						c0.279,0.198,0.593,0.266,0.904,0.278c0.311,0.006,0.621-0.057,0.905-0.179c0.284-0.122,0.544-0.302,0.755-0.531
						C433.523,349.936,433.691,349.662,433.741,349.325z"/>
					<path style="opacity:0.53;fill:#FFFFFF;" d="M426.848,350.415c-0.27,0.002-0.461,0.041-0.639,0.086
						c-0.175,0.048-0.327,0.109-0.47,0.187c-0.143,0.078-0.276,0.173-0.41,0.295c-0.133,0.127-0.269,0.267-0.415,0.495
						c0.221,0.158,0.447,0.198,0.666,0.198c0.217-0.005,0.426-0.064,0.611-0.167c0.185-0.102,0.346-0.246,0.468-0.427
						C426.774,350.897,426.861,350.685,426.848,350.415z"/>
					<path style="opacity:0.53;fill:#FFFFFF;" d="M422.335,355.637c-0.223-0.091-0.394-0.099-0.553-0.088
						c-0.156,0.016-0.293,0.063-0.413,0.137c-0.12,0.074-0.223,0.176-0.306,0.308c-0.08,0.137-0.148,0.295-0.164,0.536
						c0.223,0.092,0.395,0.101,0.554,0.09c0.156-0.016,0.293-0.063,0.412-0.139c0.119-0.075,0.222-0.176,0.305-0.309
						C422.251,356.034,422.319,355.877,422.335,355.637z"/>
					<path style="opacity:0.53;fill:#FFFFFF;" d="M430.271,340.541c-0.283-0.054-0.513-0.025-0.732,0.023
						c-0.216,0.053-0.412,0.138-0.592,0.249c-0.18,0.111-0.342,0.25-0.486,0.42c-0.14,0.175-0.268,0.37-0.344,0.648
						c0.283,0.055,0.514,0.027,0.733-0.022c0.216-0.053,0.412-0.138,0.591-0.25c0.179-0.112,0.342-0.251,0.485-0.421
						C430.066,341.013,430.194,340.819,430.271,340.541z"/>
					<path style="opacity:0.53;fill:#FFFFFF;" d="M423.203,346.426c-0.252-0.015-0.433,0.037-0.597,0.104
						c-0.16,0.071-0.292,0.167-0.402,0.285c-0.11,0.117-0.195,0.257-0.254,0.421c-0.055,0.168-0.092,0.353-0.057,0.604
						c0.253,0.016,0.434-0.036,0.598-0.103c0.16-0.071,0.292-0.167,0.401-0.286c0.109-0.118,0.195-0.258,0.254-0.422
						C423.199,346.861,423.236,346.677,423.203,346.426z"/>
					<path style="opacity:0.53;fill:#FFFFFF;" d="M422.638,338.518c-0.265,0.059-0.447,0.169-0.61,0.291
						c-0.158,0.125-0.284,0.27-0.383,0.431c-0.1,0.161-0.171,0.339-0.212,0.536c-0.036,0.2-0.051,0.412,0.017,0.676
						c0.266-0.059,0.449-0.168,0.611-0.291c0.158-0.125,0.284-0.27,0.382-0.431c0.099-0.161,0.17-0.339,0.21-0.536
						C422.69,338.993,422.706,338.781,422.638,338.518z"/>
					<path style="opacity:0.53;fill:#FFFFFF;" d="M416.308,348.831c-0.225,0.065-0.357,0.16-0.467,0.261
						c-0.105,0.103-0.174,0.218-0.214,0.341c-0.04,0.124-0.048,0.257-0.022,0.402c0.032,0.146,0.086,0.3,0.234,0.483
						c0.226-0.065,0.359-0.159,0.469-0.261c0.105-0.103,0.174-0.217,0.213-0.342c0.039-0.124,0.047-0.258,0.021-0.402
						C416.509,349.167,416.455,349.013,416.308,348.831z"/>
					<path style="opacity:0.53;fill:#FFFFFF;" d="M416.637,354.801c-0.199-0.048-0.315-0.046-0.412-0.031
						c-0.091,0.018-0.152,0.055-0.185,0.108c-0.034,0.053-0.039,0.124-0.014,0.214c0.03,0.092,0.081,0.198,0.215,0.354
						c0.2,0.049,0.317,0.047,0.413,0.032c0.091-0.018,0.152-0.055,0.184-0.109c0.033-0.054,0.038-0.125,0.013-0.214
						C416.82,355.061,416.77,354.956,416.637,354.801z"/>
					<path style="opacity:0.53;fill:#FFFFFF;" d="M416.159,343.394c0.213-0.051,0.331-0.125,0.427-0.204
						c0.09-0.081,0.145-0.17,0.169-0.267c0.024-0.097,0.016-0.201-0.027-0.314c-0.049-0.114-0.121-0.234-0.288-0.377
						c-0.214,0.051-0.333,0.125-0.428,0.204c-0.09,0.081-0.145,0.17-0.167,0.267c-0.023,0.097-0.015,0.201,0.028,0.314
						C415.922,343.132,415.993,343.252,416.159,343.394z"/>
				</g>
				<path style="fill:#60C798;" d="M411.202,361.226c0,0,6.81,2.849,10.122-1.773c0,0-4.59-1.043-6.763-0.602l4.795-5.487
					c0,0-6.27,0.145-8.05,3.045l0.205-6.53C411.51,349.879,405.629,355.586,411.202,361.226z"/>
			</g>
			<path style="fill:#4E67C3;" d="M360.164,377.31c0,0,13.418-8.555,2.473-21.08C362.637,356.229,351.638,364.698,360.164,377.31z"
				/>
			<path style="fill:#4E67C3;" d="M334.651,422.752c0,0,11.191,11.314,21.128-2.025
				C355.779,420.727,345.183,411.759,334.651,422.752z"/>
			<path style="fill:#60C798;" d="M300.327,427.28c0,0-0.933,15.886,15.63,14.359C315.957,441.639,315.543,427.764,300.327,427.28z"
				/>
			<path style="fill:#60C798;" d="M359.624,395.819c0,0,5.376-14.978-10.945-18.185
				C348.679,377.634,345.163,391.062,359.624,395.819z"/>
		</g>
	</g>
	<g>
		<defs>
			<rect id="SVGID_1_" x="103.889" width="292.223" height="500"/>
		</defs>
		<clipPath id="SVGID_00000060710608472886774010000003003036497515359931_">
			<use xlink:href="#SVGID_1_"  style="overflow:visible;"/>
		</clipPath>
		<g style="clip-path:url(#SVGID_00000060710608472886774010000003003036497515359931_);">
			<g>
				<g>
					<path style="fill:#F98A9F;" d="M310.291,181.375c0,0,3.429,14.031-0.074,14.013c-3.503-0.019-11.856-0.332-15.816-26.116
						c0,0-15.384-26.168-19.249-29.206C271.288,137.027,308.193,160.182,310.291,181.375z"/>
					<path style="fill:#F98A9F;" d="M335.205,199.4c0,0-10.237,9.54-22.826-15.212c0,0-29.393-37.183-30.36-37.943
						C281.053,145.486,326.052,166.798,335.205,199.4z"/>
					<path style="fill:#F98A9F;" d="M353.687,200.253c0,0,2.017,5.886-4.178,5.314c-6.195-0.572-14.065-0.506-31.916-29.004
						l-35.574-30.317C282.019,146.246,317.579,117.922,353.687,200.253z"/>
					<path style="fill:#FF9AAA;" d="M207.849-56.693l16.408,107.882c0,0,26.359,30.106,37.901,38.791
						c11.542,8.685,65.679,55.161,70.543,62.894c4.864,7.733,32.653,42.482,26.595,46.708c-6.059,4.226-24.504-3.633-41.356-27.437
						c0,0-23.826-19.906-28.984-22.79c-5.159-2.884-49.366-21.227-51.35-23.178c-1.984-1.951,24.249,41.737,18.397,47.689
						c-5.852,5.952-18.778,3.997-30.485-24.361c0,0-50.962-45.543-43.288-80.159l-42.55-117.883L207.849-56.693z"/>
					<path style="fill:#FF5D7A;" d="M237.605,126.177c-0.585-1.699-1.085-3.416-1.573-5.136c-0.496-1.718-0.932-3.45-1.368-5.182
						c-0.418-1.737-0.834-3.474-1.191-5.227L232.94,108c-0.15-0.885-0.326-1.763-0.453-2.655c0.299,0.844,0.55,1.702,0.826,2.553
						l0.746,2.576c0.496,1.718,0.933,3.453,1.368,5.188c0.417,1.74,0.834,3.48,1.191,5.234
						C236.985,122.649,237.337,124.404,237.605,126.177z"/>
					<path style="fill:#2B1F5D;" d="M252.177,155.865c0,0-5.953,0.992-5.457,4.961c0.496,3.969,6.449,15.378,10.417,10.913
						C257.138,171.739,258.13,168.266,252.177,155.865z"/>
					<path style="fill:#2B1F5D;" d="M360.32,197.038c0,0-3.473-9.921-5.953-12.898c-2.48-2.976-4.961,2.48-2.48,7.441
						C354.368,196.542,358.832,201.999,360.32,197.038z"/>
					<path style="fill:#FF5D7A;" d="M353.687,200.253c-1.862-0.535-3.688-1.202-5.479-1.947c-0.901-0.36-1.779-0.775-2.67-1.161
						l-2.619-1.275c-3.45-1.787-6.754-3.861-9.873-6.188c-0.766-0.599-1.571-1.152-2.296-1.804l-2.209-1.912
						c-0.726-0.649-1.395-1.359-2.096-2.036l-1.04-1.027l-0.967-1.096l-1.922-2.205l-1.75-2.346
						c-0.287-0.394-0.593-0.776-0.865-1.18l-0.764-1.249l-1.528-2.497l0.096,0.113c-4.811-3.823-9.652-7.609-14.43-11.474
						c-4.796-3.842-9.577-7.704-14.32-11.614c4.918,3.687,9.799,7.421,14.664,11.176c4.883,3.732,9.704,7.543,14.554,11.316
						l0.051,0.04l0.046,0.074l1.523,2.449l0.761,1.224c0.273,0.395,0.566,0.777,0.848,1.166l1.708,2.324l1.882,2.188l0.947,1.089
						l1.02,1.021c0.688,0.673,1.344,1.38,2.057,2.027l2.172,1.906c0.71,0.652,1.51,1.196,2.255,1.807
						c3.04,2.368,6.276,4.495,9.67,6.343C346.503,197.357,350.027,198.981,353.687,200.253z"/>
					<path style="fill:#FF5D7A;" d="M335.205,199.4c-2.081-1.829-4.06-3.771-6.018-5.734c-1.934-1.985-3.828-4.013-5.639-6.118
						c-1.809-2.105-3.546-4.277-5.136-6.563c-1.579-2.288-3.094-4.647-4.21-7.232l0.089,0.128
						c-3.571-3.445-7.179-6.853-10.721-10.329c-3.554-3.463-7.096-6.94-10.585-10.471c3.701,3.309,7.351,6.672,10.987,10.049
						c3.649,3.364,7.233,6.796,10.852,10.191l0.055,0.052l0.034,0.077c1.112,2.493,2.544,4.851,4.097,7.122
						c1.543,2.282,3.277,4.433,5.018,6.574c1.743,2.142,3.575,4.214,5.449,6.247C331.336,195.439,333.251,197.437,335.205,199.4z"/>
					<path style="fill:#FF5D7A;" d="M317.94,172.145c0.536-0.946,1.239-1.719,1.982-2.45c0.76-0.714,1.56-1.385,2.528-1.881
						c-0.535,0.948-1.238,1.72-1.982,2.45C319.707,170.976,318.907,171.647,317.94,172.145z"/>
					<path style="fill:#FF5D7A;" d="M231.379,146.52c-0.933,0.726-1.958,1.229-3.005,1.679c-1.057,0.428-2.136,0.802-3.309,0.951
						c0.932-0.727,1.957-1.23,3.005-1.679C229.127,147.045,230.207,146.671,231.379,146.52z"/>
					<path style="fill:#FF5D7A;" d="M310.291,181.375c-2.191-2.611-4.314-5.275-6.426-7.947c-2.114-2.671-4.171-5.384-6.259-8.075
						c-2.037-2.729-4.102-5.437-6.114-8.185l-3.005-4.132c-0.979-1.395-1.979-2.773-2.939-4.182
						c1.102,1.301,2.164,2.633,3.247,3.948l3.18,3.998c2.112,2.672,4.171,5.384,6.258,8.075c2.036,2.73,4.102,5.436,6.113,8.186
						C306.358,175.81,308.359,178.566,310.291,181.375z"/>
				</g>
				<g style="opacity:0.34;">
					<polygon style="fill:#2B1F5D;" points="210.527,92.811 208.137,91.6 205.785,92.883 206.198,90.236 204.251,88.395 
						206.896,87.97 208.045,85.55 209.267,87.934 211.924,88.279 210.034,90.178 					"/>
					<polygon style="fill:#2B1F5D;" points="236.177,89.919 234.962,89.304 233.766,89.956 233.976,88.61 232.986,87.674 
						234.331,87.458 234.915,86.228 235.536,87.44 236.887,87.615 235.926,88.58 					"/>
					<polygon style="fill:#2B1F5D;" points="222.463,115.462 221.248,114.846 220.052,115.498 220.262,114.152 219.272,113.216 
						220.617,113 221.201,111.77 221.823,112.982 223.173,113.157 222.212,114.123 					"/>
					<polygon style="fill:#2B1F5D;" points="213.146,122.96 211.735,122.245 210.347,123.003 210.59,121.44 209.441,120.353 
						211.003,120.102 211.681,118.673 212.402,120.081 213.971,120.285 212.855,121.406 					"/>
				</g>
			</g>
			<path style="opacity:0.26;fill:#FFFFFF;" d="M241.335,164.739c-8.293-9.039-14.986-19.427-21.905-29.513
				c-7.48-10.904-16.295-20.593-23.063-32.027c-5.127-8.66-9.751-17.645-14.92-26.281c0.13,31.43,39.213,68.139,43.653,72.208
				c-0.012,0.009-0.024,0.016-0.035,0.025c0.018-0.002,0.035-0.007,0.052-0.009c0.257,0.235,0.4,0.363,0.4,0.363
				c10.502,25.438,21.98,29.624,28.458,25.922C249.157,172.708,244.913,168.639,241.335,164.739z"/>
			<path style="opacity:0.21;fill:#FFFFFF;" d="M359.969,196.064c-0.3-1.447-0.991-3.232-1.964-5.246
				c-0.258,0.553-0.551,1.092-0.886,1.613c-2.254,3.51-5.99,4.103-9.874,3.765c-5.798-0.504-11.967-0.589-17.294-3.187
				c-4.656-2.271-8.82-5.836-11.73-10.106c-0.056-0.081-0.112-0.169-0.169-0.257c-0.038-0.011-0.073-0.018-0.112-0.029
				c-4.426-1.31-8.946-4.745-12.566-8.289c-0.74-0.27-1.403-0.771-1.857-1.486c-0.259-0.407-0.504-0.832-0.753-1.251
				c-0.142-0.16-0.288-0.321-0.425-0.479c-3.719-4.279-6.083-9.788-9.21-14.508c-4.25-6.417-9.6-11.443-16.297-15.264
				c-11.297-6.446-24.307-9.058-36.163-14.292c0.181,0.358,0.357,0.719,0.546,1.074c7.762,3.713,26.083,11.509,37.781,16.654
				c5.947,8.412,15.404,24.497,15.404,24.497c3.96,25.784,12.313,26.098,15.816,26.116c3.231,0.017,0.568-11.906,0.133-13.763
				c1.269,1.603,2.028,2.563,2.028,2.563c12.589,24.752,22.826,15.212,22.826,15.212c-0.01-0.036-0.022-0.071-0.032-0.107
				c6.478,5.813,10.697,5.937,14.336,6.273c5.309,0.49,4.588-3.753,4.273-4.979c2.32,0.252,4.207-0.094,5.514-1.006
				c0.589-0.411,0.85-1.117,0.852-2.051c0.061-0.152,0.119-0.313,0.173-0.492C360.32,197.038,360.193,196.673,359.969,196.064z"/>
			<path style="fill:#60C798;" d="M217.632,14.28c-0.103,9.704-1.839,18.818-5.161,27.176c-5.63-0.89-28.164-3.832-25.457,6.597
				c2.551,9.829,19.099-0.925,24.792-4.974c-0.521,1.219-1.075,2.422-1.665,3.606c-2.021,4.061-4.463,7.918-7.295,11.572
				c-5.55-0.881-28.217-3.868-25.502,6.589c2.367,9.121,16.787,0.518,23.402-4.005c-3.643,4.283-7.857,8.264-12.639,11.914
				c-7.928,2.167-23.591,7.538-18.001,14.991c6.153,8.205,17.541-8.434,21.154-14.188c3.34-2.668,6.406-5.495,9.183-8.482
				c-3.708,7.234-6.665,16.14,0.377,17.397c10.153,1.812,7.038-18.356,5.768-24.916c2.221-3.105,4.183-6.344,5.865-9.722
				c1.051-2.112,1.99-4.278,2.83-6.492c-1.063,8.335-1.006,18.838,6.404,17.426c10.428-1.986-0.583-20.71-3.794-25.801
				c1.471-5.94,2.254-12.174,2.322-18.662c0.218-20.65-6.707-36.455-7.002-37.118l-2.358,1.05
				C210.922-21.604,217.844-5.812,217.632,14.28z"/>
		</g>
		<g style="clip-path:url(#SVGID_00000060710608472886774010000003003036497515359931_);">
			<g>
				<g>
					<g>
						<path style="fill:#F98A9F;" d="M189.709,330.469c0,0-3.429-14.031,0.074-14.013c3.503,0.018,11.856,0.332,15.816,26.116
							c0,0,15.384,26.168,19.249,29.206C228.712,374.818,191.807,351.662,189.709,330.469z"/>
						<path style="fill:#F98A9F;" d="M164.795,312.444c0,0,10.237-9.54,22.826,15.212c0,0,29.393,37.183,30.36,37.943
							C218.947,366.358,173.947,345.046,164.795,312.444z"/>
						<path style="fill:#F98A9F;" d="M146.313,311.591c0,0-2.017-5.885,4.178-5.314c6.195,0.572,14.065,0.505,31.916,29.004
							l35.574,30.317C217.981,365.598,182.421,393.922,146.313,311.591z"/>
						<path style="fill:#FF9AAA;" d="M292.151,568.537l-16.408-107.882c0,0-26.359-30.106-37.901-38.791
							c-11.542-8.685-65.68-55.161-70.543-62.894c-4.864-7.733-32.653-42.482-26.594-46.708c6.059-4.226,24.504,3.633,41.356,27.437
							c0,0,23.826,19.906,28.984,22.79c5.159,2.884,49.366,21.227,51.35,23.178c1.984,1.951-24.249-41.737-18.397-47.689
							c5.852-5.952,18.778-3.997,30.485,24.361c0,0,50.962,45.543,43.288,80.159l42.549,117.883L292.151,568.537z"/>
						<path style="fill:#FF5D7A;" d="M262.395,385.667c0.585,1.699,1.085,3.416,1.573,5.136c0.496,1.718,0.932,3.45,1.368,5.182
							c0.418,1.737,0.834,3.474,1.191,5.227l0.533,2.631c0.15,0.885,0.326,1.763,0.453,2.655c-0.299-0.844-0.55-1.702-0.826-2.553
							l-0.746-2.576c-0.496-1.719-0.933-3.453-1.368-5.189c-0.417-1.74-0.834-3.48-1.191-5.234
							C263.015,389.195,262.663,387.44,262.395,385.667z"/>
						<path style="fill:#2B1F5D;" d="M247.823,355.98c0,0,5.953-0.992,5.457-4.961c-0.496-3.969-6.449-15.378-10.417-10.914
							C242.862,340.105,241.87,343.578,247.823,355.98z"/>
						<path style="fill:#2B1F5D;" d="M139.679,314.806c0,0,3.473,9.921,5.953,12.898c2.48,2.976,4.961-2.48,2.48-7.441
							C145.632,315.302,141.168,309.845,139.679,314.806z"/>
						<path style="fill:#FF5D7A;" d="M146.313,311.591c1.862,0.535,3.688,1.202,5.479,1.948c0.901,0.36,1.778,0.776,2.67,1.161
							l2.619,1.275c3.45,1.787,6.754,3.861,9.873,6.188c0.767,0.599,1.571,1.152,2.296,1.804l2.209,1.912
							c0.726,0.649,1.395,1.359,2.096,2.036l1.04,1.027l0.967,1.096l1.922,2.205l1.75,2.346c0.287,0.394,0.593,0.776,0.865,1.18
							l0.765,1.249l1.528,2.497l-0.097-0.113c4.811,3.823,9.652,7.609,14.43,11.474c4.797,3.842,9.577,7.704,14.32,11.614
							c-4.918-3.687-9.799-7.421-14.664-11.176c-4.883-3.732-9.704-7.543-14.554-11.316l-0.051-0.04l-0.046-0.074l-1.523-2.449
							l-0.761-1.224c-0.273-0.395-0.566-0.777-0.848-1.166l-1.708-2.324l-1.882-2.188l-0.947-1.089l-1.02-1.022
							c-0.688-0.673-1.344-1.38-2.057-2.027l-2.172-1.906c-0.71-0.652-1.51-1.196-2.255-1.807c-3.04-2.368-6.277-4.496-9.67-6.343
							C153.497,314.487,149.973,312.863,146.313,311.591z"/>
						<path style="fill:#FF5D7A;" d="M164.795,312.444c2.081,1.829,4.06,3.772,6.018,5.734c1.934,1.985,3.828,4.013,5.639,6.118
							c1.809,2.105,3.546,4.277,5.136,6.563c1.579,2.288,3.094,4.647,4.21,7.232l-0.089-0.128c3.571,3.445,7.179,6.853,10.72,10.329
							c3.554,3.463,7.096,6.94,10.585,10.472c-3.701-3.309-7.351-6.672-10.987-10.049c-3.649-3.364-7.233-6.796-10.852-10.191
							l-0.055-0.052l-0.034-0.077c-1.112-2.493-2.544-4.851-4.097-7.122c-1.543-2.282-3.277-4.432-5.018-6.574
							c-1.743-2.142-3.575-4.214-5.449-6.247C168.664,316.405,166.749,314.407,164.795,312.444z"/>
						<path style="fill:#FF5D7A;" d="M182.06,339.699c-0.536,0.946-1.239,1.719-1.982,2.45c-0.76,0.714-1.56,1.385-2.528,1.881
							c0.535-0.948,1.238-1.72,1.982-2.45C180.293,340.868,181.093,340.197,182.06,339.699z"/>
						<path style="fill:#FF5D7A;" d="M268.621,365.324c0.933-0.726,1.958-1.229,3.005-1.679c1.057-0.428,2.136-0.802,3.309-0.951
							c-0.932,0.727-1.957,1.23-3.005,1.68C270.873,364.799,269.793,365.173,268.621,365.324z"/>
						<path style="fill:#FF5D7A;" d="M189.709,330.469c2.191,2.612,4.314,5.276,6.426,7.947c2.114,2.671,4.171,5.384,6.259,8.074
							c2.037,2.729,4.102,5.437,6.114,8.185l3.005,4.132c0.979,1.395,1.979,2.773,2.939,4.182c-1.102-1.301-2.164-2.633-3.247-3.948
							l-3.18-3.999c-2.112-2.672-4.171-5.384-6.258-8.075c-2.036-2.73-4.102-5.437-6.112-8.186
							C193.642,336.034,191.641,333.278,189.709,330.469z"/>
					</g>
					<path style="opacity:0.34;fill:#2B1F5D;" d="M295.059,405.284c0.289,2.225-0.335,4.558-1.93,6.378
						c-2.945,3.362-8.058,3.7-11.42,0.755c-1.82-1.595-2.746-3.825-2.752-6.069c-1.428,1.937-2.209,4.366-2.038,6.955
						c0.384,5.82,5.414,10.226,11.233,9.841c5.82-0.384,10.226-5.414,9.841-11.233C297.823,409.322,296.729,407.016,295.059,405.284
						z"/>
				</g>
				<path style="opacity:0.26;fill:#FFFFFF;" d="M249.379,335.523c6.118,1.228,9.496,8.321,11.967,13.343
					c1.628,3.308,2.935,6.928,5.161,9.894c3.065,4.082,7.156,7.454,10.9,10.884c7.241,6.634,14.003,13.616,19.495,21.794
					c10.189,15.17,15.38,32.829,20.63,50.141c0.084,0.278,0.17,0.556,0.254,0.833c7.173-32.779-38.089-75.297-42.888-79.695
					c0.012-0.009,0.024-0.016,0.035-0.025c-0.018,0.002-0.035,0.007-0.052,0.009c-0.257-0.235-0.4-0.363-0.4-0.363
					c-9.18-22.236-19.107-28.235-25.788-26.921C248.921,335.447,249.148,335.476,249.379,335.523z"/>
				<path style="opacity:0.26;fill:#FFFFFF;" d="M194.444,321.9c4.885,5.578,7.53,12.313,10.072,19.182
					c2.59,6.997,5.268,15.073,11.845,19.363c0.11,0.072,0.224,0.127,0.335,0.196c-5.351-8.294-11.097-18.068-11.097-18.068
					c-3.96-25.784-12.313-26.098-15.816-26.116c-1.835-0.01-1.768,3.831-1.289,7.492C188.787,321.272,192.541,319.726,194.444,321.9
					z"/>
				<path style="opacity:0.26;fill:#FFFFFF;" d="M155.783,311.123c5.058,1.489,9.497,4.289,13.633,7.483
					c0.623-0.657,1.456-1.083,2.382-0.959c7.106,0.952,11.747,5.325,16.034,10.275c-0.133-0.168-0.211-0.267-0.211-0.267
					c-12.589-24.752-22.826-15.212-22.826-15.212c0.01,0.036,0.022,0.071,0.032,0.107c-6.478-5.814-10.697-5.937-14.336-6.273
					c-4.119-0.38-4.605,2.085-4.471,3.783C149.277,309.882,152.548,310.171,155.783,311.123z"/>
			</g>
			<path style="fill:#60C798;" d="M294.65,469.896c-9.217-3.716-17.263-8.77-23.996-15.055c2.948-5.038,14.155-25.434,3.2-26.74
				c-10.326-1.232-6.239,18.561-4.499,25.5c-0.968-0.951-1.909-1.928-2.819-2.932c-3.119-3.442-5.889-7.209-8.318-11.273
				c2.91-4.965,14.21-25.471,3.224-26.781c-9.582-1.143-6.753,15.818-4.906,23.814c-2.727-5.072-4.952-10.575-6.651-16.497
				c0.889-8.37,1.606-25.311-7.587-22.759c-10.12,2.81,1.504,19.874,5.646,25.467c1.299,4.18,2.852,8.159,4.667,11.921
				c-5.517-6.233-12.909-12.375-16.733-6.127c-5.514,9.008,14.883,13.557,21.614,14.791c2.133,3.275,4.491,6.355,7.086,9.219
				c1.622,1.79,3.339,3.494,5.137,5.119c-7.553-4.122-17.592-7.983-19.008-0.389c-1.993,10.687,19.971,7.165,26.023,6.001
				c5.116,3.618,10.771,6.688,16.934,9.173c19.615,7.908,37.271,7.195,38.013,7.16l-0.122-2.641
				C331.377,476.876,313.735,477.59,294.65,469.896z"/>
		</g>
	</g>
</g>
</svg>
